<svg width="30" height="30" viewBox="0 0 30 30" fill="none" xmlns="http://www.w3.org/2000/svg">
<path d="M25.1864 26.0409H4.81293C3.59365 26.0394 2.42478 25.5542 1.5627 24.692C0.700617 23.8298 0.215716 22.6608 0.214355 21.4415V8.5578C0.215717 7.3386 0.700645 6.16973 1.56275 5.30762C2.42485 4.44552 3.59373 3.96059 4.81293 3.95923H25.1864C26.4056 3.96059 27.5746 4.44549 28.4368 5.30757C29.2991 6.16965 29.7842 7.33852 29.7858 8.5578V21.4415C29.7844 22.6609 29.2994 23.83 28.4371 24.6923C27.5749 25.5546 26.4058 26.0396 25.1864 26.0409V26.0409ZM4.81293 6.10209C4.16184 6.10277 3.53761 6.36171 3.07723 6.8221C2.61684 7.28249 2.35789 7.90671 2.35721 8.5578V21.4415C2.35767 22.0927 2.61651 22.7172 3.07692 23.1778C3.53734 23.6383 4.16169 23.8974 4.81293 23.8981H25.1864C25.8377 23.8974 26.4621 23.6384 26.9227 23.1778C27.3832 22.7173 27.6422 22.0928 27.6429 21.4415V8.5578C27.642 7.90663 27.3829 7.28241 26.9224 6.82205C26.4618 6.36168 25.8375 6.10277 25.1864 6.10209H4.81293Z" fill="#14C4AF"/>
<path d="M14.9879 17.8842C14.0889 17.893 13.2132 17.5986 12.5022 17.0485L1.04389 7.91732C0.821672 7.74011 0.678953 7.4819 0.647125 7.19947C0.615298 6.91704 0.696968 6.63353 0.874171 6.41132C1.05137 6.1891 1.30959 6.04638 1.59202 6.01456C1.87445 5.98273 2.15796 6.0644 2.38017 6.2416L13.835 15.3727C14.1734 15.6128 14.5783 15.7412 14.9931 15.7401C15.408 15.739 15.8122 15.6085 16.1493 15.3667L27.4627 6.24589C27.6838 6.06755 27.9667 5.98434 28.2491 6.01456C28.5315 6.04478 28.7904 6.18595 28.9687 6.40703C29.1471 6.62811 29.2303 6.91098 29.2001 7.1934C29.1699 7.47583 29.0287 7.73469 28.8076 7.91303L17.4976 17.0339C16.7817 17.5937 15.8967 17.8936 14.9879 17.8842V17.8842Z" fill="#14C4AF"/>
</svg>
