<svg width="22" height="22" viewBox="0 0 22 22" fill="none" xmlns="http://www.w3.org/2000/svg">
<g clip-path="url(#clip0_385_54)">
<path d="M14.6666 20.1667V16.6192C14.701 16.1821 14.6419 15.7426 14.4933 15.3301C14.3448 14.9176 14.1101 14.5415 13.8049 14.2267C16.6833 13.9058 19.7083 12.815 19.7083 7.80998C19.708 6.53016 19.2157 5.29942 18.3333 4.37248C18.7511 3.25278 18.7216 2.01514 18.2508 0.91665C18.2508 0.91665 17.1691 0.595817 14.6666 2.27332C12.5656 1.7039 10.3509 1.7039 8.24992 2.27332C5.74742 0.595817 4.66575 0.91665 4.66575 0.91665C4.19493 2.01514 4.16538 3.25278 4.58325 4.37248C3.6942 5.30629 3.2014 6.54816 3.20825 7.83748C3.20825 12.8058 6.23325 13.8967 9.11159 14.2542C8.81 14.5658 8.57741 14.9374 8.42895 15.3449C8.28049 15.7524 8.21949 16.1865 8.24992 16.6192V20.1667M8.24992 17.4167C3.66659 18.7917 3.66659 15.125 1.83325 14.6667L8.24992 17.4167Z" stroke="#88B0A9" stroke-width="2" stroke-linecap="round" stroke-linejoin="round"/>
</g>
<defs>
<clipPath id="clip0_385_54">
<rect width="22" height="22" fill="white"/>
</clipPath>
</defs>
</svg>
