<svg width="12" height="13" viewBox="0 0 12 13" fill="none" xmlns="http://www.w3.org/2000/svg">
<path d="M8.17949 12.0166V9.96646C8.19872 9.71386 8.16569 9.45992 8.08257 9.22153C7.99946 8.98313 7.86817 8.76575 7.69744 8.58382C9.30769 8.39841 11 7.76801 11 4.87559C10.9999 4.13597 10.7245 3.42471 10.2308 2.88903C10.4645 2.24195 10.448 1.5267 10.1846 0.891879C10.1846 0.891879 9.57949 0.706467 8.17949 1.67591C7.00411 1.34684 5.76512 1.34684 4.58974 1.67591C3.18974 0.706467 2.58462 0.891879 2.58462 0.891879C2.32122 1.5267 2.30469 2.24195 2.53846 2.88903C2.04109 3.42868 1.7654 4.14637 1.76923 4.89148C1.76923 7.76271 3.46154 8.39311 5.07179 8.59971C4.90308 8.77981 4.77296 8.99459 4.6899 9.23007C4.60685 9.46555 4.57272 9.71646 4.58974 9.96646V12.0166M4.58974 10.4273C2.02564 11.222 2.02564 9.10298 1 8.8381L4.58974 10.4273Z" stroke="#88B0A9" stroke-width="1.5" stroke-linecap="round" stroke-linejoin="round"/>
</svg>
