<svg width="121" height="76" viewBox="0 0 121 76" fill="none" xmlns="http://www.w3.org/2000/svg">
<path d="M1.792 75.3166V65.0766H12.544V13.824L0 10.368L3.072 0L25.344 6.272V65.0766H53.5V75.3166H1.792Z" fill="#EBEDED"/>
<path d="M34.5849 55.5V27.1638C34.5849 27.1638 47.6611 16.6506 57.5 16.6925C65.4832 16.7265 76.692 23.7325 76.692 23.7325C76.692 23.7325 86.3886 16.9593 93.5 16.6925C102.938 16.3384 115.3 27.1638 115.3 27.1638V40.3725V65.0765H120.5V75.3165H96.8385V65.0765H102.5V41.6525V34C102.5 34 96.7795 29.6576 92.5 29.5C87.8358 29.3282 81.428 34 81.428 34V65.0765H87V75.3165L63 75.3165V65.0765L68.5 65.0765V53.3645V41.6525V34C68.5 34 62.1385 29.3375 57.5 29.5C53.2248 29.6497 47.5129 34 47.5129 34V55.5H34.5849Z" fill="#EBEDED"/>
</svg>
