<svg width="1152" height="883" viewBox="0 0 1152 883" fill="none" xmlns="http://www.w3.org/2000/svg">
<path d="M10.66 98.86H92.3V125.12H65.52L65.26 225.74H106.6L115.96 199.74L140.92 208.32L125.58 252H10.66V225.74H35.62V125.12H10.66V98.86ZM269.236 237.7C261.436 244.287 253.463 249.14 245.316 252.26C237.169 255.38 228.763 256.94 220.096 256.94C207.096 256.94 195.656 254.34 185.776 249.14C176.069 243.767 168.529 236.4 163.156 227.04C157.783 217.507 155.096 206.587 155.096 194.28C155.096 181.453 157.609 170.36 162.636 161C167.836 151.467 174.943 144.1 183.956 138.9C192.969 133.527 203.456 130.84 215.416 130.84C227.376 130.84 237.776 133.267 246.616 138.12C255.456 142.973 262.303 149.82 267.156 158.66C272.009 167.327 274.436 177.553 274.436 189.34C274.436 191.42 274.263 193.76 273.916 196.36C273.743 198.96 273.483 201.473 273.136 203.9H183.696C184.216 210.66 186.209 216.293 189.676 220.8C193.143 225.133 197.476 228.34 202.676 230.42C208.049 232.5 213.856 233.54 220.096 233.54C227.376 233.54 234.309 232.413 240.896 230.16C247.483 227.733 253.463 224.353 258.836 220.02L269.236 237.7ZM245.056 183.62C244.883 174.953 242.196 168.02 236.996 162.82C231.969 157.447 225.036 154.76 216.196 154.76C207.876 154.76 200.596 157.447 194.356 162.82C188.289 168.02 184.909 174.953 184.216 183.62H245.056ZM353.342 130.84C366.342 130.84 377.435 133.353 386.622 138.38C395.809 143.407 402.829 150.687 407.682 160.22C412.535 169.58 414.962 180.847 414.962 194.02C414.962 213.78 409.502 229.207 398.582 240.3C387.835 251.393 372.755 256.94 353.342 256.94C340.689 256.94 329.769 254.427 320.582 249.4C311.569 244.373 304.635 237.18 299.782 227.82C295.102 218.287 292.762 207.02 292.762 194.02C292.762 180.847 295.102 169.58 299.782 160.22C304.635 150.687 311.569 143.407 320.582 138.38C329.769 133.353 340.689 130.84 353.342 130.84ZM353.342 155.02C342.942 155.02 335.055 158.4 329.682 165.16C324.482 171.747 321.882 181.367 321.882 194.02C321.882 206.673 324.482 216.38 329.682 223.14C335.055 229.9 342.942 233.28 353.342 233.28C364.089 233.28 372.149 229.9 377.522 223.14C382.895 216.38 385.582 206.673 385.582 194.02C385.582 181.367 382.895 171.747 377.522 165.16C372.149 158.4 364.089 155.02 353.342 155.02ZM432.423 252V228.34H454.523V165.16L429.563 156.58L437.103 132.92L473.243 145.4C480.003 140.893 486.849 137.34 493.783 134.74C500.716 132.14 508.949 130.84 518.483 130.84C529.229 130.84 537.896 132.92 544.483 137.08C551.243 141.24 556.183 147.047 559.303 154.5C562.596 161.78 564.243 170.1 564.243 179.46V228.34H585.823V252H523.943V228.34H534.863V183.36C534.863 175.04 533.043 168.54 529.403 163.86C525.763 159.007 519.783 156.58 511.463 156.58C506.436 156.58 501.409 157.447 496.383 159.18C491.529 160.913 487.369 162.993 483.903 165.42V228.34H494.563V252H432.423ZM711.287 237.7C703.487 244.287 695.514 249.14 687.367 252.26C679.22 255.38 670.814 256.94 662.147 256.94C649.147 256.94 637.707 254.34 627.827 249.14C618.12 243.767 610.58 236.4 605.207 227.04C599.834 217.507 597.147 206.587 597.147 194.28C597.147 181.453 599.66 170.36 604.687 161C609.887 151.467 616.994 144.1 626.007 138.9C635.02 133.527 645.507 130.84 657.467 130.84C669.427 130.84 679.827 133.267 688.667 138.12C697.507 142.973 704.354 149.82 709.207 158.66C714.06 167.327 716.487 177.553 716.487 189.34C716.487 191.42 716.314 193.76 715.967 196.36C715.794 198.96 715.534 201.473 715.187 203.9H625.747C626.267 210.66 628.26 216.293 631.727 220.8C635.194 225.133 639.527 228.34 644.727 230.42C650.1 232.5 655.907 233.54 662.147 233.54C669.427 233.54 676.36 232.413 682.947 230.16C689.534 227.733 695.514 224.353 700.887 220.02L711.287 237.7ZM687.107 183.62C686.934 174.953 684.247 168.02 679.047 162.82C674.02 157.447 667.087 154.76 658.247 154.76C649.927 154.76 642.647 157.447 636.407 162.82C630.34 168.02 626.96 174.953 626.267 183.62H687.107ZM731.173 252V228.34H753.013V108.74L728.053 101.2L735.333 77.28L782.653 92.1V228.34H804.493V252H731.173ZM10.92 280.86H79.56L114.4 375.76L145.86 280.86H215.28V307.12H193.18V407.74H215.28V434H146.38V407.74H163.02V302.18L152.62 337.02L125.06 415.54H102.96L71.24 333.9L60.84 304L60.58 407.74H77.74V434H10.66V407.74H32.76V307.12H10.92V280.86ZM295.198 312.84C308.198 312.84 319.291 315.353 328.478 320.38C337.664 325.407 344.684 332.687 349.538 342.22C354.391 351.58 356.818 362.847 356.818 376.02C356.818 395.78 351.358 411.207 340.438 422.3C329.691 433.393 314.611 438.94 295.198 438.94C282.544 438.94 271.624 436.427 262.438 431.4C253.424 426.373 246.491 419.18 241.638 409.82C236.958 400.287 234.618 389.02 234.618 376.02C234.618 362.847 236.958 351.58 241.638 342.22C246.491 332.687 253.424 325.407 262.438 320.38C271.624 315.353 282.544 312.84 295.198 312.84ZM295.198 337.02C284.798 337.02 276.911 340.4 271.538 347.16C266.338 353.747 263.738 363.367 263.738 376.02C263.738 388.673 266.338 398.38 271.538 405.14C276.911 411.9 284.798 415.28 295.198 415.28C305.944 415.28 314.004 411.9 319.378 405.14C324.751 398.38 327.438 388.673 327.438 376.02C327.438 363.367 324.751 353.747 319.378 347.16C314.004 340.4 305.944 337.02 295.198 337.02ZM417.438 327.66C424.545 322.807 431.478 319.253 438.238 317C445.171 314.573 451.931 313.36 458.518 313.36C465.105 313.36 471.258 314.487 476.978 316.74L481.398 348.98L456.958 354.18L454.358 340.14C448.638 340.66 443.265 341.7 438.238 343.26C433.385 344.82 429.225 346.9 425.758 349.5L425.498 410.34H450.978V434H374.278V410.34H396.118V346.9L371.158 338.58L378.958 314.92L417.438 327.66ZM607.947 419.7C600.147 426.287 592.174 431.14 584.027 434.26C575.88 437.38 567.474 438.94 558.807 438.94C545.807 438.94 534.367 436.34 524.487 431.14C514.78 425.767 507.24 418.4 501.867 409.04C496.494 399.507 493.807 388.587 493.807 376.28C493.807 363.453 496.32 352.36 501.347 343C506.547 333.467 513.654 326.1 522.667 320.9C531.68 315.527 542.167 312.84 554.127 312.84C566.087 312.84 576.487 315.267 585.327 320.12C594.167 324.973 601.014 331.82 605.867 340.66C610.72 349.327 613.147 359.553 613.147 371.34C613.147 373.42 612.974 375.76 612.627 378.36C612.454 380.96 612.194 383.473 611.847 385.9H522.407C522.927 392.66 524.92 398.293 528.387 402.8C531.854 407.133 536.187 410.34 541.387 412.42C546.76 414.5 552.567 415.54 558.807 415.54C566.087 415.54 573.02 414.413 579.607 412.16C586.194 409.733 592.174 406.353 597.547 402.02L607.947 419.7ZM583.767 365.62C583.594 356.953 580.907 350.02 575.707 344.82C570.68 339.447 563.747 336.76 554.907 336.76C546.587 336.76 539.307 339.447 533.067 344.82C527 350.02 523.62 356.953 522.927 365.62H583.767ZM630.723 434V410.34H652.823V347.16L627.863 338.58L635.403 314.92L671.543 327.4C678.303 322.893 685.15 319.34 692.083 316.74C699.017 314.14 707.25 312.84 716.783 312.84C727.53 312.84 736.197 314.92 742.783 319.08C749.543 323.24 754.483 329.047 757.603 336.5C760.897 343.78 762.543 352.1 762.543 361.46V410.34H784.123V434H722.243V410.34H733.163V365.36C733.163 357.04 731.343 350.54 727.703 345.86C724.063 341.007 718.083 338.58 709.763 338.58C704.737 338.58 699.71 339.447 694.683 341.18C689.83 342.913 685.67 344.993 682.203 347.42V410.34H692.863V434H630.723ZM858.108 312.84C871.108 312.84 882.201 315.353 891.388 320.38C900.574 325.407 907.594 332.687 912.448 342.22C917.301 351.58 919.728 362.847 919.728 376.02C919.728 395.78 914.268 411.207 903.348 422.3C892.601 433.393 877.521 438.94 858.108 438.94C845.454 438.94 834.534 436.427 825.348 431.4C816.334 426.373 809.401 419.18 804.548 409.82C799.868 400.287 797.528 389.02 797.528 376.02C797.528 362.847 799.868 351.58 804.548 342.22C809.401 332.687 816.334 325.407 825.348 320.38C834.534 315.353 845.454 312.84 858.108 312.84ZM858.108 337.02C847.708 337.02 839.821 340.4 834.448 347.16C829.248 353.747 826.648 363.367 826.648 376.02C826.648 388.673 829.248 398.38 834.448 405.14C839.821 411.9 847.708 415.28 858.108 415.28C868.854 415.28 876.914 411.9 882.288 405.14C887.661 398.38 890.348 388.673 890.348 376.02C890.348 363.367 887.661 353.747 882.288 347.16C876.914 340.4 868.854 337.02 858.108 337.02ZM953.966 469.62L944.346 459.48C944.346 459.48 945.04 458.353 946.426 456.1C947.986 454.02 949.72 451.42 951.626 448.3C953.706 445.353 955.44 442.407 956.826 439.46C951.28 438.247 947.293 435.907 944.866 432.44C942.44 428.8 941.226 424.9 941.226 420.74C941.226 414.847 943.133 410.08 946.946 406.44C950.933 402.8 955.873 400.98 961.766 400.98C967.313 400.98 972.253 403.06 976.586 407.22C980.92 411.38 983.086 416.407 983.086 422.3C983.086 427.847 981.786 433.22 979.186 438.42C976.76 443.62 973.813 448.3 970.346 452.46C966.88 456.793 963.586 460.433 960.466 463.38C957.52 466.327 955.353 468.407 953.966 469.62Z" fill="#14C4AF"/>
<path d="M9.52 494.818V492.818H7.52V494.818H9.52ZM116.858 494.818L118.756 494.189L118.302 492.818H116.858V494.818ZM130.424 535.754L131.056 537.651L132.951 537.02L132.322 535.125L130.424 535.754ZM110.432 542.418L108.55 543.096L109.212 544.933L111.064 544.315L110.432 542.418ZM100.912 516L102.794 515.322L102.317 514H100.912V516ZM54.978 516V514H52.978V516H54.978ZM54.978 553.604H52.978V555.604H54.978V553.604ZM92.582 553.604H94.582V551.604H92.582V553.604ZM92.582 574.786V576.786H94.582V574.786H92.582ZM54.74 574.786V572.786H52.74V574.786H54.74ZM54.74 613.818H52.74V615.818H54.74V613.818ZM84.49 613.818H86.49V611.818H84.49V613.818ZM84.49 635V637H86.49V635H84.49ZM9.52 635H7.52V637H9.52V635ZM9.52 613.818V611.818H7.52V613.818H9.52ZM30.702 613.818V615.818H32.6971L32.702 613.823L30.702 613.818ZM30.94 516L32.94 516.005L32.9449 514H30.94V516ZM9.52 516H7.52V518H9.52V516ZM9.52 496.818H116.858V492.818H9.52V496.818ZM114.96 495.447L128.526 536.383L132.322 535.125L118.756 494.189L114.96 495.447ZM129.792 533.857L109.8 540.521L111.064 544.315L131.056 537.651L129.792 533.857ZM112.314 541.74L102.794 515.322L99.0304 516.678L108.55 543.096L112.314 541.74ZM100.912 514H54.978V518H100.912V514ZM52.978 516V553.604H56.978V516H52.978ZM54.978 555.604H92.582V551.604H54.978V555.604ZM90.582 553.604V574.786H94.582V553.604H90.582ZM92.582 572.786H54.74V576.786H92.582V572.786ZM52.74 574.786V613.818H56.74V574.786H52.74ZM54.74 615.818H84.49V611.818H54.74V615.818ZM82.49 613.818V635H86.49V613.818H82.49ZM84.49 633H9.52V637H84.49V633ZM11.52 635V613.818H7.52V635H11.52ZM9.52 615.818H30.702V611.818H9.52V615.818ZM32.702 613.823L32.94 516.005L28.94 515.995L28.702 613.813L32.702 613.823ZM30.94 514H9.52V518H30.94V514ZM11.52 516V494.818H7.52V516H11.52ZM182.178 538.61L181.537 540.505L182.469 540.82L183.287 540.274L182.178 538.61ZM200.98 529.566L201.555 531.482L201.569 531.477L201.584 531.472L200.98 529.566ZM234.3 528.614L236.279 528.324L236.113 527.195L235.057 526.763L234.3 528.614ZM238.346 556.222L238.77 558.177L240.596 557.781L240.325 555.932L238.346 556.222ZM218.592 560.506L216.624 560.864L216.994 562.899L219.016 562.461L218.592 560.506ZM216.212 547.416L218.18 547.058L217.862 545.312L216.091 545.42L216.212 547.416ZM188.842 555.746L187.715 554.094L186.846 554.686L186.842 555.738L188.842 555.746ZM188.604 615.96L186.604 615.952L186.596 617.96H188.604V615.96ZM211.928 615.96H213.928V613.96H211.928V615.96ZM211.928 635V637H213.928V635H211.928ZM144.812 635H142.812V637H144.812V635ZM144.812 615.96V613.96H142.812V615.96H144.812ZM164.804 615.96V617.96H166.804V615.96H164.804ZM164.804 554.08H166.804V552.638L165.436 552.183L164.804 554.08ZM141.956 546.464L140.058 545.832L139.426 547.729L141.323 548.361L141.956 546.464ZM148.382 527.186L149.022 525.291L147.12 524.648L146.484 526.554L148.382 527.186ZM183.287 540.274C189.33 536.245 195.419 533.322 201.555 531.482L200.405 527.65C193.847 529.618 187.401 532.724 181.068 536.946L183.287 540.274ZM201.584 531.472C207.909 529.467 214.131 528.472 220.258 528.472V524.472C213.691 524.472 207.061 525.54 200.375 527.66L201.584 531.472ZM220.258 528.472C225.998 528.472 230.388 529.175 233.543 530.465L235.057 526.763C231.23 525.197 226.259 524.472 220.258 524.472V528.472ZM232.321 528.904L236.367 556.512L240.325 555.932L236.279 528.324L232.321 528.904ZM237.922 554.267L218.168 558.551L219.016 562.461L238.77 558.177L237.922 554.267ZM220.56 560.148L218.18 547.058L214.244 547.774L216.624 560.864L220.56 560.148ZM216.091 545.42C210.71 545.746 205.559 546.644 200.643 548.118L201.793 551.95C206.397 550.568 211.242 549.721 216.333 549.412L216.091 545.42ZM200.643 548.118C195.72 549.595 191.402 551.58 187.715 554.094L189.969 557.398C193.263 555.152 197.195 553.329 201.793 551.95L200.643 548.118ZM186.842 555.738L186.604 615.952L190.604 615.968L190.842 555.754L186.842 555.738ZM188.604 617.96H211.928V613.96H188.604V617.96ZM209.928 615.96V635H213.928V615.96H209.928ZM211.928 633H144.812V637H211.928V633ZM146.812 635V615.96H142.812V635H146.812ZM144.812 617.96H164.804V613.96H144.812V617.96ZM166.804 615.96V554.08H162.804V615.96H166.804ZM165.436 552.183L142.588 544.567L141.323 548.361L164.171 555.977L165.436 552.183ZM143.853 547.096L150.279 527.818L146.484 526.554L140.058 545.832L143.853 547.096ZM147.741 529.081L181.537 540.505L182.818 536.715L149.022 525.291L147.741 529.081ZM334.323 532.898L333.334 534.637L333.355 534.648L333.375 534.659L334.323 532.898ZM353.363 552.414L351.588 553.335L351.591 553.341L351.595 553.348L353.363 552.414ZM345.271 624.29L346.685 625.704L346.691 625.699L346.697 625.693L345.271 624.29ZM276.013 632.382L275.051 634.135L275.058 634.139L275.065 634.143L276.013 632.382ZM257.211 613.104L255.422 613.998L255.432 614.018L255.443 614.038L257.211 613.104ZM257.211 552.414L255.436 551.493L255.432 551.5L255.429 551.506L257.211 552.414ZM276.013 532.898L276.976 534.651L276.987 534.645L276.013 532.898ZM282.201 555.27L280.643 554.016L280.639 554.021L282.201 555.27ZM282.201 610.248L280.639 611.497L280.649 611.509L280.658 611.521L282.201 610.248ZM328.373 610.248L326.83 608.975L326.821 608.987L326.811 608.999L328.373 610.248ZM328.373 555.27L326.796 556.501L326.813 556.522L326.83 556.543L328.373 555.27ZM305.049 527.996C316.205 527.996 325.605 530.241 333.334 534.637L335.312 531.159C326.857 526.352 316.742 523.996 305.049 523.996V527.996ZM333.375 534.659C341.26 538.905 347.324 545.112 351.588 553.335L355.139 551.493C350.517 542.58 343.887 535.776 335.271 531.137L333.375 534.659ZM351.595 553.348C355.852 561.406 358.027 571.223 358.027 582.878H362.027C362.027 570.733 359.76 560.24 355.131 551.48L351.595 553.348ZM358.027 582.878C358.027 600.106 353.226 613.355 343.846 622.887L346.697 625.693C356.991 615.233 362.027 600.874 362.027 582.878H358.027ZM343.857 622.876C334.474 632.258 321.62 637.046 305.049 637.046V641.046C322.432 641.046 336.393 635.996 346.685 625.704L343.857 622.876ZM305.049 637.046C294.212 637.046 284.871 634.88 276.961 630.621L275.065 634.143C283.656 638.769 293.673 641.046 305.049 641.046V637.046ZM276.976 630.629C269.237 626.38 263.245 620.244 258.979 612.17L255.443 614.038C260.062 622.782 266.605 629.498 275.051 634.135L276.976 630.629ZM259 612.21C254.881 603.971 252.785 594.214 252.785 582.878H248.785C248.785 594.707 250.973 605.101 255.422 613.998L259 612.21ZM252.785 582.878C252.785 571.213 254.885 561.386 258.993 553.322L255.429 551.506C250.969 560.26 248.785 570.743 248.785 582.878H252.785ZM258.987 553.335C263.256 545.102 269.247 538.894 276.976 534.651L275.051 531.145C266.595 535.787 260.052 542.59 255.436 551.493L258.987 553.335ZM276.987 534.645C284.892 530.237 294.223 527.996 305.049 527.996V523.996C293.662 523.996 283.636 526.357 275.039 531.151L276.987 534.645ZM305.049 543.512C294.58 543.512 286.335 546.945 280.643 554.016L283.759 556.524C288.539 550.585 295.526 547.512 305.049 547.512V543.512ZM280.639 554.021C275.17 560.858 272.585 570.577 272.585 582.878H276.585C276.585 571.062 279.078 562.376 283.763 556.519L280.639 554.021ZM272.585 582.878C272.585 595.028 275.173 604.664 280.639 611.497L283.763 608.999C279.075 603.138 276.585 594.528 276.585 582.878H272.585ZM280.658 611.521C286.356 618.427 294.597 621.768 305.049 621.768V617.768C295.509 617.768 288.518 614.763 283.744 608.975L280.658 611.521ZM305.049 621.768C315.938 621.768 324.373 618.449 329.935 611.497L326.811 608.999C322.218 614.74 315.104 617.768 305.049 617.768V621.768ZM329.916 611.521C335.555 604.686 338.227 595.04 338.227 582.878H334.227C334.227 594.516 331.664 603.117 326.83 608.975L329.916 611.521ZM338.227 582.878C338.227 570.565 335.558 560.836 329.916 553.997L326.83 556.543C331.66 562.397 334.227 571.074 334.227 582.878H338.227ZM329.95 554.039C324.394 546.921 315.956 543.512 305.049 543.512V547.512C315.087 547.512 322.197 550.608 326.796 556.501L329.95 554.039ZM375.607 635H373.607V637H375.607V635ZM375.607 615.96V613.96H373.607V615.96H375.607ZM395.599 615.96V617.96H397.599V615.96H395.599ZM395.599 554.318H397.599V552.891L396.249 552.427L395.599 554.318ZM372.751 546.464L370.853 545.832L370.227 547.711L372.101 548.355L372.751 546.464ZM379.177 527.186L379.83 525.296L377.919 524.635L377.279 526.554L379.177 527.186ZM411.545 538.372L410.892 540.262L411.822 540.584L412.644 540.043L411.545 538.372ZM429.871 529.328L430.503 531.225L430.517 531.221L430.531 531.216L429.871 529.328ZM473.663 531.232L472.68 532.974L472.69 532.979L472.699 532.984L473.663 531.232ZM488.181 546.226L486.401 547.138L486.405 547.147L486.41 547.156L488.181 546.226ZM493.179 615.96H491.179V617.96H493.179V615.96ZM512.933 615.96H514.933V613.96H512.933V615.96ZM512.933 635V637H514.933V635H512.933ZM459.145 635H457.145V637H459.145V635ZM459.145 615.96V613.96H457.145V615.96H459.145ZM469.379 615.96V617.96H471.379V615.96H469.379ZM463.191 553.128L461.699 554.46L461.712 554.475L461.725 554.489L463.191 553.128ZM432.013 548.844L432.606 550.754L432.625 550.748L432.645 550.741L432.013 548.844ZM419.399 554.556L418.339 552.86L417.399 553.447V554.556H419.399ZM419.399 615.96H417.399V617.96H419.399V615.96ZM429.633 615.96H431.633V613.96H429.633V615.96ZM429.633 635V637H431.633V635H429.633ZM377.607 635V615.96H373.607V635H377.607ZM375.607 617.96H395.599V613.96H375.607V617.96ZM397.599 615.96V554.318H393.599V615.96H397.599ZM396.249 552.427L373.401 544.573L372.101 548.355L394.949 556.209L396.249 552.427ZM374.648 547.096L381.074 527.818L377.279 526.554L370.853 545.832L374.648 547.096ZM378.524 529.076L410.892 540.262L412.198 536.482L379.83 525.296L378.524 529.076ZM412.644 540.043C418.543 536.162 424.496 533.228 430.503 531.225L429.238 527.431C422.869 529.554 416.605 532.649 410.446 536.701L412.644 540.043ZM430.531 531.216C436.635 529.079 443.469 527.996 451.053 527.996V523.996C443.088 523.996 435.799 525.134 429.21 527.44L430.531 531.216ZM451.053 527.996C459.679 527.996 466.858 529.69 472.68 532.974L474.645 529.49C468.091 525.793 460.197 523.996 451.053 523.996V527.996ZM472.699 532.984C478.692 536.281 483.249 540.984 486.401 547.138L489.961 545.314C486.449 538.457 481.327 533.165 474.627 529.48L472.699 532.984ZM486.41 547.156C489.562 553.16 491.179 560.364 491.179 568.836H495.179C495.179 559.855 493.463 551.986 489.952 545.296L486.41 547.156ZM491.179 568.836V615.96H495.179V568.836H491.179ZM493.179 617.96H512.933V613.96H493.179V617.96ZM510.933 615.96V635H514.933V615.96H510.933ZM512.933 633H459.145V637H512.933V633ZM461.145 635V615.96H457.145V635H461.145ZM459.145 617.96H469.379V613.96H459.145V617.96ZM471.379 615.96V572.644H467.379V615.96H471.379ZM471.379 572.644C471.379 563.78 469.245 556.708 464.656 551.767L461.725 554.489C465.387 558.433 467.379 564.372 467.379 572.644H471.379ZM464.683 551.796C460.237 546.816 453.833 544.464 445.817 544.464V548.464C453.033 548.464 458.212 550.554 461.699 554.46L464.683 551.796ZM445.817 544.464C441.133 544.464 436.318 545.301 431.38 546.947L432.645 550.741C437.227 549.214 441.615 548.464 445.817 548.464V544.464ZM431.42 546.934C426.666 548.409 422.303 550.382 418.339 552.86L420.459 556.252C424.111 553.97 428.157 552.135 432.606 550.754L431.42 546.934ZM417.399 554.556V615.96H421.399V554.556H417.399ZM419.399 617.96H429.633V613.96H419.399V617.96ZM427.633 615.96V635H431.633V615.96H427.633ZM429.633 633H375.607V637H429.633V633ZM561.628 635L562.502 633.201L562.502 633.201L561.628 635ZM548.538 621.91L546.758 622.823L546.763 622.832L546.768 622.841L548.538 621.91ZM543.778 549.082H545.778V547.082H543.778V549.082ZM524.024 549.082H522.024V551.082H524.024V549.082ZM524.024 530.28V528.28H522.024V530.28H524.024ZM543.778 530.28V532.28H545.778V530.28H543.778ZM543.778 508.86L543.223 506.938L541.778 507.356V508.86H543.778ZM566.864 502.196H568.864V499.537L566.309 500.274L566.864 502.196ZM566.864 530.28H564.864V532.28H566.864V530.28ZM595.9 530.28H597.9V528.28H595.9V530.28ZM595.9 549.082V551.082H597.9V549.082H595.9ZM566.864 549.082V547.082H564.864V549.082H566.864ZM570.196 611.914L568.332 612.639L568.344 612.671L568.358 612.702L570.196 611.914ZM599.232 615.722L601.167 615.218L600.552 612.854L598.356 613.924L599.232 615.722ZM603.754 633.096L604.551 634.93L606.12 634.248L605.689 632.592L603.754 633.096ZM592.33 637.142L591.791 635.216L591.755 635.226L591.72 635.237L592.33 637.142ZM580.43 637.046C573.712 637.046 567.749 635.75 562.502 633.201L560.754 636.799C566.613 639.645 573.186 641.046 580.43 641.046V637.046ZM562.502 633.201C557.372 630.709 553.304 626.672 550.308 620.979L546.768 622.841C550.118 629.207 554.777 633.896 560.754 636.799L562.502 633.201ZM550.318 620.997C547.338 615.188 545.778 607.442 545.778 597.634H541.778C541.778 607.818 543.391 616.256 546.758 622.823L550.318 620.997ZM545.778 597.634V549.082H541.778V597.634H545.778ZM543.778 547.082H524.024V551.082H543.778V547.082ZM526.024 549.082V530.28H522.024V549.082H526.024ZM524.024 532.28H543.778V528.28H524.024V532.28ZM545.778 530.28V508.86H541.778V530.28H545.778ZM544.333 510.782L567.419 504.118L566.309 500.274L543.223 506.938L544.333 510.782ZM564.864 502.196V530.28H568.864V502.196H564.864ZM566.864 532.28H595.9V528.28H566.864V532.28ZM593.9 530.28V549.082H597.9V530.28H593.9ZM595.9 547.082H566.864V551.082H595.9V547.082ZM564.864 549.082V588.828H568.864V549.082H564.864ZM564.864 588.828C564.864 598.628 565.984 606.601 568.332 612.639L572.06 611.189C569.965 605.803 568.864 598.386 568.864 588.828H564.864ZM568.358 612.702C569.675 615.775 571.574 618.199 574.106 619.84C576.635 621.479 579.65 622.244 583.048 622.244V618.244C580.257 618.244 578.037 617.621 576.282 616.483C574.53 615.348 573.097 613.606 572.034 611.126L568.358 612.702ZM583.048 622.244C588.066 622.244 593.771 620.607 600.108 617.52L598.356 613.924C592.317 616.866 587.233 618.244 583.048 618.244V622.244ZM597.296 616.226L601.818 633.6L605.689 632.592L601.167 615.218L597.296 616.226ZM602.956 631.262C599.394 632.811 595.672 634.129 591.791 635.216L592.869 639.068C596.921 637.933 600.815 636.555 604.551 634.93L602.956 631.262ZM591.72 635.237C587.941 636.447 584.18 637.046 580.43 637.046V641.046C584.614 641.046 588.786 640.376 592.939 639.047L591.72 635.237ZM677.506 494.818V492.818H675.506V494.818H677.506ZM784.606 494.818L786.503 494.186L786.048 492.818H784.606V494.818ZM797.934 534.802L798.587 536.692L800.457 536.047L799.831 534.17L797.934 534.802ZM777.942 541.704L776.061 542.383L776.731 544.238L778.595 543.595L777.942 541.704ZM768.66 516L770.541 515.321L770.064 514H768.66V516ZM722.964 516V514H720.964V516H722.964ZM722.964 552.652H720.964V554.652H722.964V552.652ZM764.852 552.652H766.852V550.652H764.852V552.652ZM764.852 573.596V575.596H766.852V573.596H764.852ZM722.964 573.596V571.596H720.964V573.596H722.964ZM722.964 613.818H720.964V615.818H722.964V613.818ZM774.372 613.818V615.818H775.779L776.254 614.494L774.372 613.818ZM783.178 589.304L783.831 587.413L781.964 586.769L781.296 588.628L783.178 589.304ZM803.17 596.206L805.062 596.856L805.71 594.967L803.823 594.315L803.17 596.206ZM789.842 635V637H791.27L791.734 635.65L789.842 635ZM677.268 635H675.268V637H677.268V635ZM677.268 613.818V611.818H675.268V613.818H677.268ZM698.45 613.818V615.818H700.445L700.45 613.823L698.45 613.818ZM698.688 516L700.688 516.005L700.693 514H698.688V516ZM677.506 516H675.506V518H677.506V516ZM677.506 496.818H784.606V492.818H677.506V496.818ZM782.709 495.45L796.037 535.434L799.831 534.17L786.503 494.186L782.709 495.45ZM797.281 532.911L777.289 539.813L778.595 543.595L798.587 536.692L797.281 532.911ZM779.823 541.025L770.541 515.321L766.779 516.679L776.061 542.383L779.823 541.025ZM768.66 514H722.964V518H768.66V514ZM720.964 516V552.652H724.964V516H720.964ZM722.964 554.652H764.852V550.652H722.964V554.652ZM762.852 552.652V573.596H766.852V552.652H762.852ZM764.852 571.596H722.964V575.596H764.852V571.596ZM720.964 573.596V613.818H724.964V573.596H720.964ZM722.964 615.818H774.372V611.818H722.964V615.818ZM776.254 614.494L785.06 589.98L781.296 588.628L772.49 613.142L776.254 614.494ZM782.525 591.195L802.517 598.097L803.823 594.315L783.831 587.413L782.525 591.195ZM801.279 595.556L787.951 634.35L791.734 635.65L805.062 596.856L801.279 595.556ZM789.842 633H677.268V637H789.842V633ZM679.268 635V613.818H675.268V635H679.268ZM677.268 615.818H698.45V611.818H677.268V615.818ZM700.45 613.823L700.688 516.005L696.688 515.995L696.45 613.813L700.45 613.823ZM698.688 514H677.506V518H698.688V514ZM679.506 516V494.818H675.506V516H679.506ZM821.16 635H819.16V637H821.16V635ZM821.16 615.96V613.96H819.16V615.96H821.16ZM841.152 615.96V617.96H843.152V615.96H841.152ZM841.152 554.318H843.152V552.891L841.802 552.427L841.152 554.318ZM818.304 546.464L816.406 545.832L815.78 547.711L817.653 548.355L818.304 546.464ZM824.73 527.186L825.383 525.296L823.472 524.635L822.832 526.554L824.73 527.186ZM857.098 538.372L856.444 540.262L857.374 540.584L858.197 540.043L857.098 538.372ZM875.424 529.328L876.056 531.225L876.07 531.221L876.084 531.216L875.424 529.328ZM919.216 531.232L918.233 532.974L918.242 532.979L918.252 532.984L919.216 531.232ZM933.734 546.226L931.953 547.138L931.958 547.147L931.963 547.156L933.734 546.226ZM938.732 615.96H936.732V617.96H938.732V615.96ZM958.486 615.96H960.486V613.96H958.486V615.96ZM958.486 635V637H960.486V635H958.486ZM904.698 635H902.698V637H904.698V635ZM904.698 615.96V613.96H902.698V615.96H904.698ZM914.932 615.96V617.96H916.932V615.96H914.932ZM908.744 553.128L907.252 554.46L907.265 554.475L907.278 554.489L908.744 553.128ZM877.566 548.844L878.158 550.754L878.178 550.748L878.198 550.741L877.566 548.844ZM864.952 554.556L863.892 552.86L862.952 553.447V554.556H864.952ZM864.952 615.96H862.952V617.96H864.952V615.96ZM875.186 615.96H877.186V613.96H875.186V615.96ZM875.186 635V637H877.186V635H875.186ZM823.16 635V615.96H819.16V635H823.16ZM821.16 617.96H841.152V613.96H821.16V617.96ZM843.152 615.96V554.318H839.152V615.96H843.152ZM841.802 552.427L818.954 544.573L817.653 548.355L840.501 556.209L841.802 552.427ZM820.201 547.096L826.627 527.818L822.832 526.554L816.406 545.832L820.201 547.096ZM824.076 529.076L856.444 540.262L857.751 536.482L825.383 525.296L824.076 529.076ZM858.197 540.043C864.096 536.162 870.049 533.228 876.056 531.225L874.791 527.431C868.422 529.554 862.157 532.649 855.998 536.701L858.197 540.043ZM876.084 531.216C882.188 529.079 889.021 527.996 896.606 527.996V523.996C888.64 523.996 881.352 525.134 874.763 527.44L876.084 531.216ZM896.606 527.996C905.232 527.996 912.411 529.69 918.233 532.974L920.198 529.49C913.644 525.793 905.75 523.996 896.606 523.996V527.996ZM918.252 532.984C924.245 536.281 928.802 540.984 931.953 547.138L935.514 545.314C932.001 538.457 926.879 533.165 920.179 529.48L918.252 532.984ZM931.963 547.156C935.115 553.16 936.732 560.364 936.732 568.836H940.732C940.732 559.855 939.016 551.986 935.504 545.296L931.963 547.156ZM936.732 568.836V615.96H940.732V568.836H936.732ZM938.732 617.96H958.486V613.96H938.732V617.96ZM956.486 615.96V635H960.486V615.96H956.486ZM958.486 633H904.698V637H958.486V633ZM906.698 635V615.96H902.698V635H906.698ZM904.698 617.96H914.932V613.96H904.698V617.96ZM916.932 615.96V572.644H912.932V615.96H916.932ZM916.932 572.644C916.932 563.78 914.798 556.708 910.209 551.767L907.278 554.489C910.94 558.433 912.932 564.372 912.932 572.644H916.932ZM910.235 551.796C905.789 546.816 899.386 544.464 891.37 544.464V548.464C898.585 548.464 903.764 550.554 907.252 554.46L910.235 551.796ZM891.37 544.464C886.686 544.464 881.871 545.301 876.933 546.947L878.198 550.741C882.78 549.214 887.168 548.464 891.37 548.464V544.464ZM876.973 546.934C872.219 548.409 867.856 550.382 863.892 552.86L866.012 556.252C869.663 553.97 873.709 552.135 878.158 550.754L876.973 546.934ZM862.952 554.556V615.96H866.952V554.556H862.952ZM864.952 617.96H875.186V613.96H864.952V617.96ZM873.186 615.96V635H877.186V615.96H873.186ZM875.186 633H821.16V637H875.186V633ZM1087.44 639.998L1086.79 641.888L1088.72 642.557L1089.35 640.61L1087.44 639.998ZM1056.5 629.288L1057.16 627.398L1056.19 627.062L1055.35 627.655L1056.5 629.288ZM984.864 623.814L983.395 625.171L983.406 625.182L983.417 625.194L984.864 623.814ZM984.864 540.514L983.45 539.1L983.444 539.106L983.439 539.112L984.864 540.514ZM1036.99 527.186L1036.61 529.15L1036.61 529.15L1036.99 527.186ZM1048.89 530.518L1048.18 532.391L1050.89 533.404V530.518H1048.89ZM1048.89 505.052H1050.89V503.634L1049.55 503.165L1048.89 505.052ZM1025.8 496.96L1023.91 496.321L1023.27 498.194L1025.14 498.847L1025.8 496.96ZM1032.46 477.206L1033.11 475.314L1031.21 474.662L1030.57 476.567L1032.46 477.206ZM1072.69 491.01H1074.69V489.582L1073.34 489.118L1072.69 491.01ZM1072.69 612.628H1070.69V614.049L1072.03 614.517L1072.69 612.628ZM1093.87 620.006L1095.77 620.618L1096.37 618.759L1094.53 618.117L1093.87 620.006ZM1037.22 617.864L1037.79 619.782L1037.79 619.782L1037.22 617.864ZM1048.89 612.866L1049.9 614.588L1050.89 614.007V612.866H1048.89ZM1048.89 550.748H1050.89V549.541L1049.82 548.978L1048.89 550.748ZM1037.7 546.94L1037.27 548.892L1037.27 548.894L1037.28 548.896L1037.7 546.94ZM1003.19 555.27L1001.69 553.95L1001.68 553.961L1001.67 553.971L1003.19 555.27ZM1003.19 609.296L1001.61 610.524L1001.63 610.543L1001.64 610.562L1003.19 609.296ZM1088.1 638.108L1057.16 627.398L1055.85 631.178L1086.79 641.888L1088.1 638.108ZM1055.35 627.655C1046.49 633.915 1036.51 637.046 1025.32 637.046V641.046C1037.31 641.046 1048.11 637.672 1057.66 630.921L1055.35 627.655ZM1025.32 637.046C1008.44 637.046 995.529 632.104 986.312 622.434L983.417 625.194C993.557 635.833 1007.62 641.046 1025.32 641.046V637.046ZM986.334 622.457C977.245 612.611 972.584 598.947 972.584 581.212H968.584C968.584 599.653 973.444 614.391 983.395 625.171L986.334 622.457ZM972.584 581.212C972.584 564.127 977.235 551.123 986.29 541.916L983.439 539.112C973.454 549.263 968.584 563.39 968.584 581.212H972.584ZM986.279 541.928C995.49 532.717 1008.41 527.996 1025.32 527.996V523.996C1007.65 523.996 993.597 528.953 983.45 539.1L986.279 541.928ZM1025.32 527.996C1028.83 527.996 1032.59 528.377 1036.61 529.15L1037.36 525.222C1033.13 524.408 1029.12 523.996 1025.32 523.996V527.996ZM1036.61 529.15C1040.63 529.923 1044.49 531.003 1048.18 532.391L1049.59 528.645C1045.67 527.177 1041.6 526.036 1037.36 525.222L1036.61 529.15ZM1050.89 530.518V505.052H1046.89V530.518H1050.89ZM1049.55 503.165L1026.46 495.073L1025.14 498.847L1048.22 506.939L1049.55 503.165ZM1027.7 497.599L1034.36 477.845L1030.57 476.567L1023.91 496.321L1027.7 497.599ZM1031.82 479.098L1072.04 492.902L1073.34 489.118L1033.11 475.314L1031.82 479.098ZM1070.69 491.01V612.628H1074.69V491.01H1070.69ZM1072.03 614.517L1093.21 621.895L1094.53 618.117L1073.34 610.739L1072.03 614.517ZM1091.96 619.394L1085.54 639.386L1089.35 640.61L1095.77 620.618L1091.96 619.394ZM1025.56 621.768C1029.29 621.768 1033.37 621.091 1037.79 619.782L1036.66 615.946C1032.51 617.176 1028.82 617.768 1025.56 617.768V621.768ZM1037.79 619.782C1042.22 618.47 1046.26 616.742 1049.9 614.588L1047.87 611.144C1044.53 613.115 1040.8 614.719 1036.66 615.946L1037.79 619.782ZM1050.89 612.866V550.748H1046.89V612.866H1050.89ZM1049.82 548.978C1046.6 547.284 1042.69 545.963 1038.12 544.984L1037.28 548.896C1041.6 549.821 1045.15 551.039 1047.95 552.518L1049.82 548.978ZM1038.13 544.988C1033.73 544.009 1029.54 543.512 1025.56 543.512V547.512C1029.2 547.512 1033.1 547.967 1037.27 548.892L1038.13 544.988ZM1025.56 543.512C1015.83 543.512 1007.81 546.983 1001.69 553.95L1004.69 556.59C1010 550.547 1016.89 547.512 1025.56 547.512V543.512ZM1001.67 553.971C995.737 560.92 992.86 569.987 992.86 580.974H996.86C996.86 570.7 999.537 562.63 1004.71 556.569L1001.67 553.971ZM992.86 580.974C992.86 593.027 995.713 602.94 1001.61 610.524L1004.77 608.068C999.561 601.372 996.86 592.404 996.86 580.974H992.86ZM1001.64 610.562C1007.74 618.019 1015.77 621.768 1025.56 621.768V617.768C1016.95 617.768 1010.06 614.536 1004.74 608.03L1001.64 610.562ZM128.044 710.096L126.63 711.51L126.639 711.519L126.647 711.528L128.044 710.096ZM128.52 813.15L129.897 814.6L129.898 814.6L128.52 813.15ZM9.52 831H7.52V833H9.52V831ZM9.52 809.818V807.818H7.52V809.818H9.52ZM30.464 809.818V811.818H32.464V809.818H30.464ZM30.464 712H32.464V710H30.464V712ZM9.52 712H7.52V714H9.52V712ZM9.52 690.818V688.818H7.52V690.818H9.52ZM109.242 798.156L110.586 799.637L110.593 799.63L110.601 799.624L109.242 798.156ZM109.718 725.09L108.251 726.45L108.264 726.464L108.277 726.477L109.718 725.09ZM54.978 712V710H52.978V712H54.978ZM54.978 809.818H52.978V811.818H54.978V809.818ZM73.78 692.818C96.7309 692.818 114.251 699.132 126.63 711.51L129.458 708.682C116.133 695.356 97.4771 688.818 73.78 688.818V692.818ZM126.647 711.528C139.179 723.753 145.56 740.952 145.56 763.408H149.56C149.56 740.168 142.931 721.826 129.441 708.664L126.647 711.528ZM145.56 763.408C145.56 784.084 139.358 800.095 127.143 811.7L129.898 814.6C143.068 802.088 149.56 784.938 149.56 763.408H145.56ZM127.143 811.7C115.085 823.147 98.0261 829 75.684 829V833C98.7206 833 116.886 826.953 129.897 814.6L127.143 811.7ZM75.684 829H9.52V833H75.684V829ZM11.52 831V809.818H7.52V831H11.52ZM9.52 811.818H30.464V807.818H9.52V811.818ZM32.464 809.818V712H28.464V809.818H32.464ZM30.464 710H9.52V714H30.464V710ZM11.52 712V690.818H7.52V712H11.52ZM9.52 692.818H73.78V688.818H9.52V692.818ZM71.4 811.818C88.3405 811.818 101.516 807.867 110.586 799.637L107.898 796.675C99.8318 803.994 87.7795 807.818 71.4 807.818V811.818ZM110.601 799.624C119.693 791.205 124.094 779.018 124.094 763.408H120.094C120.094 778.262 115.927 789.24 107.883 796.688L110.601 799.624ZM124.094 763.408C124.094 746.135 119.897 732.777 111.159 723.703L108.277 726.477C116.04 734.539 120.094 746.727 120.094 763.408H124.094ZM111.185 723.73C102.6 714.472 90.0094 710 73.78 710V714C89.284 714 100.652 718.255 108.251 726.45L111.185 723.73ZM73.78 710H54.978V714H73.78V710ZM52.978 712V809.818H56.978V712H52.978ZM54.978 811.818H71.4V807.818H54.978V811.818ZM267.776 818.386L269.078 819.905L270.382 818.787L269.474 817.329L267.776 818.386ZM246.832 831L246.139 829.124L246.132 829.127L246.125 829.129L246.832 831ZM173.29 808.628L171.528 809.574L171.539 809.594L171.55 809.613L173.29 808.628ZM173.052 749.128L174.82 750.062L174.824 750.055L174.828 750.049L173.052 749.128ZM191.854 729.136L190.855 727.404L190.847 727.408L190.84 727.412L191.854 729.136ZM247.308 728.66L246.3 730.388L246.314 730.395L246.328 730.403L247.308 728.66ZM264.92 746.748L263.153 747.685L263.161 747.699L263.168 747.713L264.92 746.748ZM271.108 779.83L273.102 779.983L273.102 779.983L271.108 779.83ZM270.394 785.78L270.4 787.78L272.089 787.775L272.367 786.109L270.394 785.78ZM189.474 786.018L189.468 784.018L187.333 784.024L187.479 786.154L189.474 786.018ZM194.948 803.154L193.321 804.316L193.344 804.35L193.369 804.382L194.948 803.154ZM207.324 812.912L206.501 814.735L206.536 814.751L206.571 814.765L207.324 812.912ZM242.786 812.912L242.123 811.025L242.123 811.025L242.786 812.912ZM258.732 803.868L260.43 802.811L259.216 800.862L257.452 802.332L258.732 803.868ZM247.546 768.882V770.882H249.546V768.882H247.546ZM240.168 748.89L238.688 750.235L238.709 750.259L238.732 750.282L240.168 748.89ZM199.946 748.89L201.254 750.403L201.257 750.4L199.946 748.89ZM189.95 768.882L187.959 768.691L187.749 770.882H189.95V768.882ZM266.474 816.867C259.968 822.445 253.189 826.519 246.139 829.124L247.525 832.876C255.073 830.087 262.256 825.751 269.078 819.905L266.474 816.867ZM246.125 829.129C239.22 831.738 231.924 833.046 224.222 833.046V837.046C232.387 837.046 240.164 835.657 247.539 832.871L246.125 829.129ZM224.222 833.046C212.744 833.046 202.842 830.798 194.453 826.375L192.587 829.913C201.651 834.692 212.217 837.046 224.222 837.046V833.046ZM194.453 826.375C186.057 821.948 179.598 815.712 175.031 807.643L171.55 809.613C176.502 818.363 183.529 825.137 192.587 829.913L194.453 826.375ZM175.052 807.682C170.632 799.452 168.388 789.792 168.388 778.64H164.388C164.388 790.336 166.745 800.668 171.528 809.574L175.052 807.682ZM168.388 778.64C168.388 767.64 170.556 758.135 174.82 750.062L171.284 748.194C166.663 756.94 164.388 767.109 164.388 778.64H168.388ZM174.828 750.049C179.102 741.805 185.11 735.424 192.868 730.86L190.84 727.412C182.414 732.368 175.887 739.315 171.277 748.207L174.828 750.049ZM192.853 730.868C200.766 726.303 209.855 723.996 220.176 723.996V719.996C209.236 719.996 199.443 722.449 190.855 727.404L192.853 730.868ZM220.176 723.996C230.361 723.996 239.043 726.154 246.3 730.388L248.316 726.932C240.341 722.28 230.935 719.996 220.176 719.996V723.996ZM246.328 730.403C253.607 734.498 259.206 740.246 263.153 747.685L266.687 745.811C262.383 737.7 256.241 731.39 248.289 726.917L246.328 730.403ZM263.168 747.713C267.262 755.143 269.346 763.923 269.346 774.118H273.346C273.346 763.369 271.146 753.902 266.672 745.783L263.168 747.713ZM269.346 774.118C269.346 775.804 269.269 777.656 269.114 779.677L273.102 779.983C273.264 777.879 273.346 775.923 273.346 774.118H269.346ZM269.114 779.677C268.959 781.685 268.728 783.609 268.421 785.451L272.367 786.109C272.695 784.143 272.939 782.101 273.102 779.983L269.114 779.677ZM270.388 783.78L189.468 784.018L189.48 788.018L270.4 787.78L270.388 783.78ZM187.479 786.154C187.973 793.402 189.879 799.498 193.321 804.316L196.575 801.992C193.67 797.924 191.927 792.596 191.469 785.882L187.479 786.154ZM193.369 804.382C196.9 808.921 201.284 812.379 206.501 814.735L208.147 811.089C203.527 809.003 199.66 805.955 196.527 801.926L193.369 804.382ZM206.571 814.765C211.904 816.931 217.636 818.006 223.746 818.006V814.006C218.115 814.006 212.898 813.018 208.077 811.059L206.571 814.765ZM223.746 818.006C230.773 818.006 237.346 816.943 243.449 814.799L242.123 811.025C236.485 813.006 230.365 814.006 223.746 814.006V818.006ZM243.449 814.799C249.544 812.658 255.068 809.524 260.012 805.404L257.452 802.332C252.876 806.145 247.77 809.041 242.123 811.025L243.449 814.799ZM257.034 804.925L266.078 819.443L269.474 817.329L260.43 802.811L257.034 804.925ZM249.546 768.882C249.546 760.205 246.945 753.011 241.605 747.498L238.732 750.282C243.229 754.924 245.546 761.057 245.546 768.882H249.546ZM241.648 747.545C236.445 741.821 229.364 739.036 220.652 739.036V743.036C228.442 743.036 234.371 745.487 238.688 750.235L241.648 747.545ZM220.652 739.036C212.381 739.036 205.017 741.837 198.635 747.38L201.257 750.4C206.934 745.471 213.373 743.036 220.652 743.036V739.036ZM198.638 747.377C192.35 752.815 188.798 759.966 187.959 768.691L191.941 769.073C192.689 761.296 195.801 755.119 201.254 750.403L198.638 747.377ZM189.95 770.882H247.546V766.882H189.95V770.882ZM272.415 726.28V724.28H270.39L270.415 726.305L272.415 726.28ZM327.393 726.28H329.393V724.28H327.393V726.28ZM327.393 745.082V747.082H329.393V745.082H327.393ZM315.255 745.082V743.082H312.244L313.412 745.858L315.255 745.082ZM333.581 788.636L335.438 787.893L335.432 787.877L335.425 787.86L333.581 788.636ZM342.149 810.056L340.292 810.799L342.124 815.378L343.999 810.816L342.149 810.056ZM350.955 788.636L349.112 787.86L349.109 787.868L349.105 787.876L350.955 788.636ZM369.281 745.082L371.125 745.858L372.293 743.082H369.281V745.082ZM357.143 745.082H355.143V747.082H357.143V745.082ZM357.143 726.28V724.28H355.143V726.28H357.143ZM410.693 726.28H412.693V724.28H410.693V726.28ZM410.693 745.082V747.082H412.693V745.082H410.693ZM393.795 745.082V743.082H392.504L391.972 744.259L393.795 745.082ZM355.001 831V833H356.293L356.824 831.823L355.001 831ZM328.583 831L326.751 831.802L327.275 833H328.583V831ZM290.979 745.082L292.811 744.28L292.287 743.082H290.979V745.082ZM272.653 745.082L270.653 745.107L270.678 747.082H272.653V745.082ZM272.415 728.28H327.393V724.28H272.415V728.28ZM325.393 726.28V745.082H329.393V726.28H325.393ZM327.393 743.082H315.255V747.082H327.393V743.082ZM313.412 745.858L331.738 789.412L335.425 787.86L317.099 744.306L313.412 745.858ZM331.724 789.379L340.292 810.799L344.006 809.313L335.438 787.893L331.724 789.379ZM343.999 810.816L352.805 789.396L349.105 787.876L340.299 809.296L343.999 810.816ZM352.799 789.412L371.125 745.858L367.438 744.306L349.112 787.86L352.799 789.412ZM369.281 743.082H357.143V747.082H369.281V743.082ZM359.143 745.082V726.28H355.143V745.082H359.143ZM357.143 728.28H410.693V724.28H357.143V728.28ZM408.693 726.28V745.082H412.693V726.28H408.693ZM410.693 743.082H393.795V747.082H410.693V743.082ZM391.972 744.259L353.178 830.177L356.824 831.823L395.618 745.905L391.972 744.259ZM355.001 829H328.583V833H355.001V829ZM330.415 830.198L292.811 744.28L289.147 745.884L326.751 831.802L330.415 830.198ZM290.979 743.082H272.653V747.082H290.979V743.082ZM274.653 745.057L274.415 726.255L270.415 726.305L270.653 745.107L274.653 745.057ZM513.911 818.386L515.212 819.905L516.517 818.787L515.608 817.329L513.911 818.386ZM492.967 831L492.274 829.124L492.267 829.127L492.26 829.129L492.967 831ZM419.425 808.628L417.663 809.574L417.673 809.594L417.684 809.613L419.425 808.628ZM419.187 749.128L420.955 750.062L420.959 750.055L420.962 750.049L419.187 749.128ZM437.989 729.136L436.989 727.404L436.982 727.408L436.975 727.412L437.989 729.136ZM493.443 728.66L492.435 730.388L492.449 730.395L492.462 730.403L493.443 728.66ZM511.055 746.748L509.288 747.685L509.296 747.699L509.303 747.713L511.055 746.748ZM517.243 779.83L519.237 779.983L519.237 779.983L517.243 779.83ZM516.529 785.78L516.535 787.78L518.224 787.775L518.502 786.109L516.529 785.78ZM435.609 786.018L435.603 784.018L433.468 784.024L433.613 786.154L435.609 786.018ZM441.083 803.154L439.455 804.316L439.479 804.35L439.504 804.382L441.083 803.154ZM453.459 812.912L452.636 814.735L452.671 814.751L452.706 814.765L453.459 812.912ZM488.921 812.912L488.258 811.025L488.258 811.025L488.921 812.912ZM504.867 803.868L506.564 802.811L505.35 800.862L503.586 802.332L504.867 803.868ZM493.681 768.882V770.882H495.681V768.882H493.681ZM486.303 748.89L484.823 750.235L484.844 750.259L484.866 750.282L486.303 748.89ZM446.081 748.89L447.389 750.403L447.392 750.4L446.081 748.89ZM436.085 768.882L434.094 768.691L433.883 770.882H436.085V768.882ZM512.609 816.867C506.102 822.445 499.323 826.519 492.274 829.124L493.66 832.876C501.208 830.087 508.391 825.751 515.212 819.905L512.609 816.867ZM492.26 829.129C485.355 831.738 478.058 833.046 470.357 833.046V837.046C478.522 837.046 486.299 835.657 493.674 832.871L492.26 829.129ZM470.357 833.046C458.879 833.046 448.977 830.798 440.588 826.375L438.722 829.913C447.786 834.692 458.352 837.046 470.357 837.046V833.046ZM440.588 826.375C432.192 821.948 425.733 815.712 421.165 807.643L417.684 809.613C422.637 818.363 429.664 825.137 438.722 829.913L440.588 826.375ZM421.187 807.682C416.767 799.452 414.523 789.792 414.523 778.64H410.523C410.523 790.336 412.88 800.668 417.663 809.574L421.187 807.682ZM414.523 778.64C414.523 767.64 416.69 758.135 420.955 750.062L417.418 748.194C412.798 756.94 410.523 767.109 410.523 778.64H414.523ZM420.962 750.049C425.237 741.805 431.245 735.424 439.003 730.86L436.975 727.412C428.549 732.368 422.022 739.315 417.411 748.207L420.962 750.049ZM438.988 730.868C446.901 726.303 455.989 723.996 466.311 723.996V719.996C455.371 719.996 445.578 722.449 436.989 727.404L438.988 730.868ZM466.311 723.996C476.495 723.996 485.178 726.154 492.435 730.388L494.451 726.932C486.476 722.28 477.07 719.996 466.311 719.996V723.996ZM492.462 730.403C499.742 734.498 505.341 740.246 509.288 747.685L512.822 745.811C508.518 737.7 502.376 731.39 494.423 726.917L492.462 730.403ZM509.303 747.713C513.397 755.143 515.481 763.923 515.481 774.118H519.481C519.481 763.369 517.28 753.902 512.806 745.783L509.303 747.713ZM515.481 774.118C515.481 775.804 515.404 777.656 515.249 779.677L519.237 779.983C519.399 777.879 519.481 775.923 519.481 774.118H515.481ZM515.249 779.677C515.094 781.685 514.863 783.609 514.556 785.451L518.502 786.109C518.829 784.143 519.074 782.101 519.237 779.983L515.249 779.677ZM516.523 783.78L435.603 784.018L435.615 788.018L516.535 787.78L516.523 783.78ZM433.613 786.154C434.108 793.402 436.014 799.498 439.455 804.316L442.71 801.992C439.805 797.924 438.062 792.596 437.604 785.882L433.613 786.154ZM439.504 804.382C443.035 808.921 447.419 812.379 452.636 814.735L454.282 811.089C449.662 809.003 445.795 805.955 442.662 801.926L439.504 804.382ZM452.706 814.765C458.039 816.931 463.771 818.006 469.881 818.006V814.006C464.25 814.006 459.033 813.018 454.212 811.059L452.706 814.765ZM469.881 818.006C476.908 818.006 483.481 816.943 489.584 814.799L488.258 811.025C482.62 813.006 476.499 814.006 469.881 814.006V818.006ZM489.584 814.799C495.679 812.658 501.203 809.524 506.147 805.404L503.586 802.332C499.01 806.145 493.904 809.041 488.258 811.025L489.584 814.799ZM503.169 804.925L512.213 819.443L515.608 817.329L506.564 802.811L503.169 804.925ZM495.681 768.882C495.681 760.205 493.079 753.011 487.739 747.498L484.866 750.282C489.363 754.924 491.681 761.057 491.681 768.882H495.681ZM487.783 747.545C482.58 741.821 475.498 739.036 466.787 739.036V743.036C474.577 743.036 480.506 745.487 484.823 750.235L487.783 747.545ZM466.787 739.036C458.516 739.036 451.152 741.837 444.769 747.38L447.392 750.4C453.068 745.471 459.508 743.036 466.787 743.036V739.036ZM444.772 747.377C438.485 752.815 434.933 759.966 434.094 768.691L438.076 769.073C438.823 761.296 441.935 755.119 447.389 750.403L444.772 747.377ZM436.085 770.882H493.681V766.882H436.085V770.882ZM531.467 831H529.467V833H531.467V831ZM531.467 811.96V809.96H529.467V811.96H531.467ZM551.459 811.96V813.96H553.459V811.96H551.459ZM551.459 698.672H553.459V697.148L551.99 696.744L551.459 698.672ZM528.135 692.246L526.217 691.678L525.638 693.633L527.604 694.174L528.135 692.246ZM533.847 672.968L534.389 671.043L532.49 670.508L531.929 672.4L533.847 672.968ZM575.259 684.63H577.259V683.115L575.801 682.705L575.259 684.63ZM575.259 811.96H573.259V813.96H575.259V811.96ZM595.251 811.96H597.251V809.96H595.251V811.96ZM595.251 831V833H597.251V831H595.251ZM533.467 831V811.96H529.467V831H533.467ZM531.467 813.96H551.459V809.96H531.467V813.96ZM553.459 811.96V698.672H549.459V811.96H553.459ZM551.99 696.744L528.666 690.318L527.604 694.174L550.928 700.6L551.99 696.744ZM530.053 692.814L535.765 673.536L531.929 672.4L526.217 691.678L530.053 692.814ZM533.305 674.893L574.717 686.555L575.801 682.705L534.389 671.043L533.305 674.893ZM573.259 684.63V811.96H577.259V684.63H573.259ZM575.259 813.96H595.251V809.96H575.259V813.96ZM593.251 811.96V831H597.251V811.96H593.251ZM595.251 829H531.467V833H595.251V829ZM694.577 728.898L693.588 730.637L693.608 730.648L693.629 730.659L694.577 728.898ZM713.617 748.414L711.841 749.335L711.845 749.341L711.849 749.348L713.617 748.414ZM705.525 820.29L706.939 821.704L706.945 821.699L706.95 821.693L705.525 820.29ZM636.267 828.382L635.304 830.135L635.312 830.139L635.319 830.143L636.267 828.382ZM617.465 809.104L615.676 809.998L615.686 810.018L615.697 810.038L617.465 809.104ZM617.465 748.414L615.689 747.493L615.686 747.5L615.683 747.506L617.465 748.414ZM636.267 728.898L637.23 730.651L637.241 730.645L636.267 728.898ZM642.455 751.27L640.897 750.016L640.893 750.021L642.455 751.27ZM642.455 806.248L640.893 807.497L640.903 807.509L640.912 807.521L642.455 806.248ZM688.627 806.248L687.084 804.975L687.075 804.987L687.065 804.999L688.627 806.248ZM688.627 751.27L687.05 752.501L687.067 752.522L687.084 752.543L688.627 751.27ZM665.303 723.996C676.459 723.996 685.859 726.241 693.588 730.637L695.566 727.159C687.111 722.352 676.995 719.996 665.303 719.996V723.996ZM693.629 730.659C701.514 734.905 707.578 741.112 711.841 749.335L715.392 747.493C710.771 738.58 704.141 731.776 695.525 727.137L693.629 730.659ZM711.849 749.348C716.106 757.406 718.281 767.223 718.281 778.878H722.281C722.281 766.733 720.014 756.24 715.385 747.48L711.849 749.348ZM718.281 778.878C718.281 796.106 713.48 809.355 704.099 818.887L706.95 821.693C717.244 811.233 722.281 796.874 722.281 778.878H718.281ZM704.111 818.876C694.728 828.258 681.874 833.046 665.303 833.046V837.046C682.686 837.046 696.647 831.996 706.939 821.704L704.111 818.876ZM665.303 833.046C654.466 833.046 645.125 830.88 637.215 826.621L635.319 830.143C643.91 834.769 653.927 837.046 665.303 837.046V833.046ZM637.229 826.629C629.491 822.38 623.499 816.244 619.233 808.17L615.697 810.038C620.316 818.782 626.859 825.498 635.304 830.135L637.229 826.629ZM619.254 808.21C615.135 799.971 613.039 790.214 613.039 778.878H609.039C609.039 790.707 611.227 801.101 615.676 809.998L619.254 808.21ZM613.039 778.878C613.039 767.213 615.139 757.386 619.247 749.322L615.683 747.506C611.223 756.26 609.039 766.743 609.039 778.878H613.039ZM619.24 749.335C623.509 741.102 629.501 734.894 637.229 730.651L635.304 727.145C626.849 731.787 620.306 738.59 615.689 747.493L619.24 749.335ZM637.241 730.645C645.145 726.237 654.477 723.996 665.303 723.996V719.996C653.915 719.996 643.89 722.357 635.293 727.151L637.241 730.645ZM665.303 739.512C654.834 739.512 646.589 742.945 640.897 750.016L644.013 752.524C648.793 746.585 655.78 743.512 665.303 743.512V739.512ZM640.893 750.021C635.424 756.858 632.839 766.577 632.839 778.878H636.839C636.839 767.062 639.332 758.376 644.017 752.519L640.893 750.021ZM632.839 778.878C632.839 791.028 635.427 800.664 640.893 807.497L644.017 804.999C639.329 799.138 636.839 790.528 636.839 778.878H632.839ZM640.912 807.521C646.61 814.427 654.851 817.768 665.303 817.768V813.768C655.763 813.768 648.772 810.763 643.998 804.975L640.912 807.521ZM665.303 817.768C676.192 817.768 684.627 814.449 690.189 807.497L687.065 804.999C682.472 810.74 675.358 813.768 665.303 813.768V817.768ZM690.17 807.521C695.809 800.686 698.481 791.04 698.481 778.878H694.481C694.481 790.516 691.917 799.117 687.084 804.975L690.17 807.521ZM698.481 778.878C698.481 766.565 695.812 756.836 690.17 749.997L687.084 752.543C691.914 758.397 694.481 767.074 694.481 778.878H698.481ZM690.204 750.039C684.648 742.921 676.209 739.512 665.303 739.512V743.512C675.341 743.512 682.451 746.608 687.05 752.501L690.204 750.039ZM732.529 882.17H730.529V884.17H732.529V882.17ZM732.529 863.368V861.368H730.529V863.368H732.529ZM752.521 863.368V865.368H754.521V863.368H752.521ZM752.521 748.89H754.521V747.444L753.147 746.991L752.521 748.89ZM730.149 741.512L728.242 740.908L727.645 742.792L729.522 743.411L730.149 741.512ZM736.337 721.996L736.989 720.106L735.05 719.436L734.43 721.392L736.337 721.996ZM769.419 733.42L768.766 735.31L769.72 735.64L770.552 735.068L769.419 733.42ZM840.581 736.752L839.12 738.118L839.132 738.13L839.143 738.142L840.581 736.752ZM847.959 807.438L849.748 808.332L849.748 808.332L847.959 807.438ZM828.919 828.144L829.933 829.868L829.943 829.862L828.919 828.144ZM776.559 831.952L777.141 830.039L774.559 829.253V831.952H776.559ZM776.559 863.368H774.559V865.368H776.559V863.368ZM796.551 863.368H798.551V861.368H796.551V863.368ZM796.551 882.17V884.17H798.551V882.17H796.551ZM822.255 805.772L820.686 804.532L820.686 804.532L822.255 805.772ZM822.969 750.556L824.518 749.292L824.518 749.292L822.969 750.556ZM787.507 743.892L786.855 742.001L786.855 742.001L787.507 743.892ZM776.321 750.318L774.947 748.864L774.321 749.456V750.318H776.321ZM776.321 811.246H774.321V812.45L775.385 813.014L776.321 811.246ZM786.793 814.816L786.359 816.768L786.4 816.777L786.441 816.785L786.793 814.816ZM734.529 882.17V863.368H730.529V882.17H734.529ZM732.529 865.368H752.521V861.368H732.529V865.368ZM754.521 863.368V748.89H750.521V863.368H754.521ZM753.147 746.991L730.775 739.613L729.522 743.411L751.894 750.789L753.147 746.991ZM732.055 742.116L738.243 722.6L734.43 721.392L728.242 740.908L732.055 742.116ZM735.684 723.886L768.766 735.31L770.071 731.53L736.989 720.106L735.684 723.886ZM770.552 735.068C775.482 731.678 780.798 728.982 786.504 726.977L785.178 723.203C779.142 725.324 773.51 728.18 768.286 731.772L770.552 735.068ZM786.504 726.977C792.208 724.973 797.456 723.996 802.263 723.996V719.996C796.915 719.996 791.215 721.082 785.178 723.203L786.504 726.977ZM802.263 723.996C818.179 723.996 830.375 728.77 839.12 738.118L842.041 735.386C832.381 725.06 819.032 719.996 802.263 719.996V723.996ZM839.143 738.142C848.056 747.357 852.623 760.136 852.623 776.736H856.623C856.623 759.382 851.828 745.504 842.018 735.362L839.143 738.142ZM852.623 776.736C852.623 788.06 850.452 797.979 846.17 806.544L849.748 808.332C854.35 799.127 856.623 788.578 856.623 776.736H852.623ZM846.17 806.544C841.892 815.099 835.805 821.71 827.895 826.426L829.943 829.862C838.533 824.741 845.14 817.547 849.748 808.332L846.17 806.544ZM827.905 826.42C820.172 830.969 810.936 833.284 800.121 833.284V837.284C811.518 837.284 821.481 834.839 829.933 829.868L827.905 826.42ZM800.121 833.284C791.889 833.284 784.233 832.197 777.141 830.039L775.976 833.865C783.482 836.15 791.534 837.284 800.121 837.284V833.284ZM774.559 831.952V863.368H778.559V831.952H774.559ZM776.559 865.368H796.551V861.368H776.559V865.368ZM794.551 863.368V882.17H798.551V863.368H794.551ZM796.551 880.17H732.529V884.17H796.551V880.17ZM799.883 818.006C809.948 818.006 818.01 814.364 823.824 807.012L820.686 804.532C815.71 810.825 808.857 814.006 799.883 814.006V818.006ZM823.824 807.012C829.594 799.714 832.347 789.614 832.347 776.974H828.347C828.347 789.086 825.704 798.184 820.686 804.532L823.824 807.012ZM832.347 776.974C832.347 765.147 829.841 755.816 824.518 749.292L821.419 751.82C825.934 757.355 828.347 765.635 828.347 776.974H832.347ZM824.518 749.292C819.135 742.693 811.284 739.512 801.311 739.512V743.512C810.378 743.512 816.965 746.36 821.419 751.82L824.518 749.292ZM801.311 739.512C796.475 739.512 791.654 740.346 786.855 742.001L788.159 745.783C792.562 744.264 796.944 743.512 801.311 743.512V739.512ZM786.855 742.001C782.047 743.659 778.053 745.931 774.947 748.864L777.694 751.772C780.3 749.311 783.764 747.298 788.159 745.783L786.855 742.001ZM774.321 750.318V811.246H778.321V750.318H774.321ZM775.385 813.014C778.293 814.553 781.969 815.793 786.359 816.768L787.227 812.864C783.048 811.935 779.743 810.795 777.256 809.478L775.385 813.014ZM786.441 816.785C790.994 817.598 795.475 818.006 799.883 818.006V814.006C795.723 814.006 791.477 813.621 787.144 812.847L786.441 816.785ZM974.339 818.386L975.64 819.905L976.944 818.787L976.036 817.329L974.339 818.386ZM953.395 831L952.701 829.124L952.694 829.127L952.688 829.129L953.395 831ZM879.853 808.628L878.091 809.574L878.101 809.594L878.112 809.613L879.853 808.628ZM879.615 749.128L881.383 750.062L881.387 750.055L881.39 750.049L879.615 749.128ZM898.417 729.136L897.417 727.404L897.41 727.408L897.402 727.412L898.417 729.136ZM953.871 728.66L952.863 730.388L952.876 730.395L952.89 730.403L953.871 728.66ZM971.483 746.748L969.716 747.685L969.723 747.699L969.731 747.713L971.483 746.748ZM977.671 779.83L979.665 779.983L979.665 779.983L977.671 779.83ZM976.957 785.78L976.962 787.78L978.652 787.775L978.929 786.109L976.957 785.78ZM896.037 786.018L896.031 784.018L893.896 784.024L894.041 786.154L896.037 786.018ZM901.511 803.154L899.883 804.316L899.907 804.35L899.932 804.382L901.511 803.154ZM913.887 812.912L913.063 814.735L913.098 814.751L913.134 814.765L913.887 812.912ZM949.349 812.912L948.686 811.025L948.686 811.025L949.349 812.912ZM965.295 803.868L966.992 802.811L965.778 800.862L964.014 802.332L965.295 803.868ZM954.109 768.882V770.882H956.109V768.882H954.109ZM946.731 748.89L945.251 750.235L945.272 750.259L945.294 750.282L946.731 748.89ZM906.509 748.89L907.817 750.403L907.82 750.4L906.509 748.89ZM896.513 768.882L894.522 768.691L894.311 770.882H896.513V768.882ZM973.037 816.867C966.53 822.445 959.751 826.519 952.701 829.124L954.088 832.876C961.635 830.087 968.819 825.751 975.64 819.905L973.037 816.867ZM952.688 829.129C945.782 831.738 938.486 833.046 930.785 833.046V837.046C938.95 837.046 946.727 835.657 954.101 832.871L952.688 829.129ZM930.785 833.046C919.307 833.046 909.405 830.798 901.015 826.375L899.15 829.913C908.214 834.692 918.78 837.046 930.785 837.046V833.046ZM901.015 826.375C892.62 821.948 886.16 815.712 881.593 807.643L878.112 809.613C883.065 818.363 890.092 825.137 899.15 829.913L901.015 826.375ZM881.615 807.682C877.195 799.452 874.951 789.792 874.951 778.64H870.951C870.951 790.336 873.308 800.668 878.091 809.574L881.615 807.682ZM874.951 778.64C874.951 767.64 877.118 758.135 881.383 750.062L877.846 748.194C873.226 756.94 870.951 767.109 870.951 778.64H874.951ZM881.39 750.049C885.665 741.805 891.672 735.424 899.431 730.86L897.402 727.412C888.977 732.368 882.45 739.315 877.839 748.207L881.39 750.049ZM899.416 730.868C907.329 726.303 916.417 723.996 926.739 723.996V719.996C915.799 719.996 906.006 722.449 897.417 727.404L899.416 730.868ZM926.739 723.996C936.923 723.996 945.606 726.154 952.863 730.388L954.878 726.932C946.903 722.28 937.498 719.996 926.739 719.996V723.996ZM952.89 730.403C960.17 734.498 965.769 740.246 969.716 747.685L973.249 745.811C968.946 737.7 962.803 731.39 954.851 726.917L952.89 730.403ZM969.731 747.713C973.825 755.143 975.909 763.923 975.909 774.118H979.909C979.909 763.369 977.708 753.902 973.234 745.783L969.731 747.713ZM975.909 774.118C975.909 775.804 975.832 777.656 975.676 779.677L979.665 779.983C979.827 777.879 979.909 775.923 979.909 774.118H975.909ZM975.676 779.677C975.522 781.685 975.291 783.609 974.984 785.451L978.929 786.109C979.257 784.143 979.502 782.101 979.665 779.983L975.676 779.677ZM976.951 783.78L896.031 784.018L896.042 788.018L976.962 787.78L976.951 783.78ZM894.041 786.154C894.535 793.402 896.442 799.498 899.883 804.316L903.138 801.992C900.233 797.924 898.49 792.596 898.032 785.882L894.041 786.154ZM899.932 804.382C903.462 808.921 907.846 812.379 913.063 814.735L914.71 811.089C910.089 809.003 906.223 805.955 903.089 801.926L899.932 804.382ZM913.134 814.765C918.467 816.931 924.198 818.006 930.309 818.006V814.006C924.677 814.006 919.461 813.018 914.639 811.059L913.134 814.765ZM930.309 818.006C937.335 818.006 943.908 816.943 950.012 814.799L948.686 811.025C943.047 813.006 936.927 814.006 930.309 814.006V818.006ZM950.012 814.799C956.106 812.658 961.631 809.524 966.575 805.404L964.014 802.332C959.438 806.145 954.332 809.041 948.686 811.025L950.012 814.799ZM963.597 804.925L972.641 819.443L976.036 817.329L966.992 802.811L963.597 804.925ZM956.109 768.882C956.109 760.205 953.507 753.011 948.167 747.498L945.294 750.282C949.791 754.924 952.109 761.057 952.109 768.882H956.109ZM948.21 747.545C943.007 741.821 935.926 739.036 927.215 739.036V743.036C935.004 743.036 940.934 745.487 945.251 750.235L948.21 747.545ZM927.215 739.036C918.944 739.036 911.58 741.837 905.197 747.38L907.82 750.4C913.496 745.471 919.936 743.036 927.215 743.036V739.036ZM905.2 747.377C898.913 752.815 895.361 759.966 894.522 768.691L898.503 769.073C899.251 761.296 902.363 755.119 907.817 750.403L905.2 747.377ZM896.513 770.882H954.109V766.882H896.513V770.882ZM1030.75 734.61L1030.11 736.505L1031.04 736.82L1031.86 736.274L1030.75 734.61ZM1049.55 725.566L1050.13 727.482L1050.14 727.477L1050.16 727.472L1049.55 725.566ZM1082.87 724.614L1084.85 724.324L1084.69 723.195L1083.63 722.763L1082.87 724.614ZM1086.92 752.222L1087.34 754.177L1089.17 753.781L1088.9 751.932L1086.92 752.222ZM1067.16 756.506L1065.2 756.864L1065.57 758.899L1067.59 758.461L1067.16 756.506ZM1064.78 743.416L1066.75 743.058L1066.43 741.312L1064.66 741.42L1064.78 743.416ZM1037.41 751.746L1036.29 750.094L1035.42 750.686L1035.41 751.738L1037.41 751.746ZM1037.18 811.96L1035.18 811.952L1035.17 813.96H1037.18V811.96ZM1060.5 811.96H1062.5V809.96H1060.5V811.96ZM1060.5 831V833H1062.5V831H1060.5ZM993.384 831H991.384V833H993.384V831ZM993.384 811.96V809.96H991.384V811.96H993.384ZM1013.38 811.96V813.96H1015.38V811.96H1013.38ZM1013.38 750.08H1015.38V748.638L1014.01 748.183L1013.38 750.08ZM990.528 742.464L988.631 741.832L987.998 743.729L989.896 744.361L990.528 742.464ZM996.954 723.186L997.595 721.291L995.692 720.648L995.057 722.554L996.954 723.186ZM1031.86 736.274C1037.9 732.245 1043.99 729.322 1050.13 727.482L1048.98 723.65C1042.42 725.618 1035.97 728.724 1029.64 732.946L1031.86 736.274ZM1050.16 727.472C1056.48 725.467 1062.7 724.472 1068.83 724.472V720.472C1062.26 720.472 1055.63 721.54 1048.95 723.66L1050.16 727.472ZM1068.83 724.472C1074.57 724.472 1078.96 725.175 1082.11 726.465L1083.63 722.763C1079.8 721.197 1074.83 720.472 1068.83 720.472V724.472ZM1080.89 724.904L1084.94 752.512L1088.9 751.932L1084.85 724.324L1080.89 724.904ZM1086.49 750.267L1066.74 754.551L1067.59 758.461L1087.34 754.177L1086.49 750.267ZM1069.13 756.148L1066.75 743.058L1062.82 743.774L1065.2 756.864L1069.13 756.148ZM1064.66 741.42C1059.28 741.746 1054.13 742.644 1049.22 744.118L1050.36 747.95C1054.97 746.568 1059.81 745.721 1064.91 745.412L1064.66 741.42ZM1049.22 744.118C1044.29 745.595 1039.97 747.58 1036.29 750.094L1038.54 753.398C1041.84 751.152 1045.77 749.329 1050.36 747.95L1049.22 744.118ZM1035.41 751.738L1035.18 811.952L1039.18 811.968L1039.41 751.754L1035.41 751.738ZM1037.18 813.96H1060.5V809.96H1037.18V813.96ZM1058.5 811.96V831H1062.5V811.96H1058.5ZM1060.5 829H993.384V833H1060.5V829ZM995.384 831V811.96H991.384V831H995.384ZM993.384 813.96H1013.38V809.96H993.384V813.96ZM1015.38 811.96V750.08H1011.38V811.96H1015.38ZM1014.01 748.183L991.161 740.567L989.896 744.361L1012.74 751.977L1014.01 748.183ZM992.425 743.096L998.851 723.818L995.057 722.554L988.631 741.832L992.425 743.096ZM996.314 725.081L1030.11 736.505L1031.39 732.715L997.595 721.291L996.314 725.081Z" fill="#14C4AF"/>
<path d="M9.192 17.524H29.352V23.32H23.976L23.892 38.776H48.084L48.168 23.32H42.792V17.524H62.868V23.32H54.888L54.636 61.204H62.7V67H42.708V61.204H48.084V44.572H23.892L23.808 61.204H29.184V67H9.108V61.204H17.172L17.256 23.32H9.192V17.524ZM86.9005 29.704C90.6525 29.704 93.9005 30.488 96.6445 32.056C99.4445 33.568 101.629 35.78 103.197 38.692C104.765 41.548 105.549 44.992 105.549 49.024C105.549 55.016 103.841 59.72 100.425 63.136C97.0085 66.552 92.5005 68.26 86.9005 68.26C83.3165 68.26 80.1245 67.504 77.3245 65.992C74.5805 64.424 72.4245 62.212 70.8565 59.356C69.3445 56.444 68.5885 53 68.5885 49.024C68.5885 44.992 69.3445 41.548 70.8565 38.692C72.4245 35.78 74.5805 33.568 77.3245 32.056C80.1245 30.488 83.3165 29.704 86.9005 29.704ZM86.9845 35.08C83.1205 35.08 80.2085 36.312 78.2485 38.776C76.2885 41.184 75.3085 44.6 75.3085 49.024C75.3085 53.448 76.2885 56.864 78.2485 59.272C80.2085 61.68 83.1205 62.884 86.9845 62.884C90.9605 62.884 93.9285 61.68 95.8885 59.272C97.8485 56.864 98.8285 53.448 98.8285 49.024C98.8285 44.6 97.8485 41.184 95.8885 38.776C93.9285 36.312 90.9605 35.08 86.9845 35.08ZM110.881 67V61.792H117.937V19.456L109.537 17.608L110.965 12.232L124.489 15.34V61.792H131.545V67H110.881ZM162.793 64.564C159.153 67.028 155.205 68.26 150.949 68.26C146.245 68.26 142.661 67.308 140.197 65.404C137.789 63.5 136.557 60.728 136.501 57.088C136.389 49.752 141.037 46.084 150.445 46.084L161.281 46.168C161.281 42.416 160.581 39.644 159.181 37.852C157.781 36.004 155.653 35.08 152.797 35.08C151.453 35.08 150.137 35.164 148.849 35.332C147.561 35.5 146.357 35.752 145.237 36.088L144.397 40.708L139.021 39.7L140.365 32.056C142.493 31.272 144.565 30.684 146.581 30.292C148.653 29.9 150.641 29.704 152.545 29.704C157.585 29.704 161.393 31.076 163.969 33.82C166.545 36.508 167.833 40.512 167.833 45.832V60.448L175.813 63.052L174.133 68.428L162.793 64.564ZM150.697 51.376C148.289 51.376 146.441 51.852 145.153 52.804C143.865 53.756 143.221 55.156 143.221 57.004C143.221 60.924 145.909 62.884 151.285 62.884C155.149 62.884 158.481 61.82 161.281 59.692V51.46L150.697 51.376ZM185.001 77.164L182.061 74.644C182.061 74.644 182.285 74.28 182.733 73.552C183.181 72.88 183.713 72.012 184.329 70.948C184.945 69.94 185.477 68.932 185.925 67.924C184.469 67.812 183.321 67.28 182.481 66.328C181.641 65.376 181.221 64.284 181.221 63.052C181.221 61.484 181.725 60.224 182.733 59.272C183.797 58.32 185.113 57.844 186.681 57.844C188.193 57.844 189.509 58.404 190.629 59.524C191.805 60.644 192.393 61.988 192.393 63.556C192.393 65.18 192.029 66.776 191.301 68.344C190.573 69.968 189.705 71.452 188.697 72.796C187.745 74.14 186.877 75.204 186.093 75.988C185.365 76.772 185.001 77.164 185.001 77.164ZM220.02 67V61.792H227.076V37.684L219.012 34.912L220.776 29.704L231.864 33.568C233.432 32.392 235.224 31.468 237.24 30.796C239.312 30.068 241.3 29.704 243.204 29.704C246.004 29.704 248.412 30.068 250.428 30.796C252.5 31.524 254.124 32.616 255.3 34.072C256.7 32.784 258.52 31.748 260.76 30.964C263 30.124 265.156 29.704 267.228 29.704C272.324 29.704 275.992 30.824 278.232 33.064C280.528 35.304 281.676 38.916 281.676 43.9V61.792H288.732V67H271.344V61.792H275.124V45.244C275.124 41.548 274.48 38.944 273.192 37.432C271.96 35.864 269.832 35.08 266.808 35.08C265.016 35.08 263.252 35.36 261.516 35.92C259.836 36.424 258.548 37.096 257.652 37.936V61.792H261.432V67H247.32V61.792H251.1V45.244C251.1 41.548 250.456 38.944 249.168 37.432C247.936 35.864 245.808 35.08 242.784 35.08C240.992 35.08 239.228 35.36 237.492 35.92C235.812 36.424 234.524 37.096 233.628 37.936V61.792H237.408V67H220.02ZM293.672 30.964H307.28V61.792H314.252V67H293.672V61.792H300.644V36.172H293.672V30.964ZM303.08 13.072C304.648 13.072 305.908 13.548 306.86 14.5C307.812 15.452 308.288 16.712 308.288 18.28C308.288 19.848 307.812 21.108 306.86 22.06C305.908 23.012 304.648 23.488 303.08 23.488C301.512 23.488 300.252 23.012 299.3 22.06C298.404 21.108 297.956 19.848 297.956 18.28C297.956 16.712 298.404 15.452 299.3 14.5C300.252 13.548 301.512 13.072 303.08 13.072ZM340.77 67V61.792H347.826V37.684L339.762 34.912L341.526 29.704L352.698 33.568C354.658 32.28 356.73 31.328 358.914 30.712C361.154 30.04 363.338 29.704 365.466 29.704C368.154 29.704 370.618 30.236 372.858 31.3C375.154 32.308 376.974 33.876 378.318 36.004C379.718 38.076 380.418 40.708 380.418 43.9V61.792H387.474V67H370.086V61.792H373.866V45.244C373.866 41.66 372.942 39.084 371.094 37.516C369.302 35.892 367.062 35.08 364.374 35.08C362.806 35.08 361.154 35.332 359.418 35.836C357.738 36.284 356.058 36.984 354.378 37.936V61.792H358.158V67H340.77ZM410.35 29.704C414.102 29.704 417.35 30.488 420.094 32.056C422.894 33.568 425.078 35.78 426.646 38.692C428.214 41.548 428.998 44.992 428.998 49.024C428.998 55.016 427.29 59.72 423.874 63.136C420.458 66.552 415.95 68.26 410.35 68.26C406.766 68.26 403.574 67.504 400.774 65.992C398.03 64.424 395.874 62.212 394.306 59.356C392.794 56.444 392.038 53 392.038 49.024C392.038 44.992 392.794 41.548 394.306 38.692C395.874 35.78 398.03 33.568 400.774 32.056C403.574 30.488 406.766 29.704 410.35 29.704ZM410.434 35.08C406.57 35.08 403.658 36.312 401.698 38.776C399.738 41.184 398.758 44.6 398.758 49.024C398.758 53.448 399.738 56.864 401.698 59.272C403.658 61.68 406.57 62.884 410.434 62.884C414.41 62.884 417.378 61.68 419.338 59.272C421.298 56.864 422.278 53.448 422.278 49.024C422.278 44.6 421.298 41.184 419.338 38.776C417.378 36.312 414.41 35.08 410.434 35.08ZM434.286 67V61.792H441.342V37.684L433.278 34.912L435.042 29.704L446.13 33.568C447.698 32.392 449.49 31.468 451.506 30.796C453.578 30.068 455.566 29.704 457.47 29.704C460.27 29.704 462.678 30.068 464.694 30.796C466.766 31.524 468.39 32.616 469.566 34.072C470.966 32.784 472.786 31.748 475.026 30.964C477.266 30.124 479.422 29.704 481.494 29.704C486.59 29.704 490.258 30.824 492.498 33.064C494.794 35.304 495.942 38.916 495.942 43.9V61.792H502.998V67H485.61V61.792H489.39V45.244C489.39 41.548 488.746 38.944 487.458 37.432C486.226 35.864 484.098 35.08 481.074 35.08C479.282 35.08 477.518 35.36 475.782 35.92C474.102 36.424 472.814 37.096 471.918 37.936V61.792H475.698V67H461.586V61.792H465.366V45.244C465.366 41.548 464.722 38.944 463.434 37.432C462.202 35.864 460.074 35.08 457.05 35.08C455.258 35.08 453.494 35.36 451.758 35.92C450.078 36.424 448.79 37.096 447.894 37.936V61.792H451.674V67H434.286ZM526.334 68.26C523.422 68.26 520.566 67.868 517.766 67.084C515.022 66.3 512.586 65.124 510.458 63.556V20.464L502.478 17.692L504.242 12.484L516.926 16.852V32.476C520.398 30.628 523.646 29.704 526.67 29.704C532.83 29.704 537.338 31.188 540.194 34.156C543.106 37.124 544.562 41.744 544.562 48.016C544.562 54.96 543.078 60.084 540.11 63.388C537.198 66.636 532.606 68.26 526.334 68.26ZM526.25 62.884C530.226 62.884 533.138 61.68 534.986 59.272C536.89 56.864 537.842 53.112 537.842 48.016C537.842 43.536 536.918 40.26 535.07 38.188C533.278 36.116 530.45 35.08 526.586 35.08C523.562 35.08 520.342 36.116 516.926 38.188V60.784C519.39 62.184 522.498 62.884 526.25 62.884ZM562.126 33.652C564.03 32.364 566.186 31.384 568.594 30.712C571.002 30.04 573.41 29.704 575.818 29.704C577.834 29.704 578.898 29.76 579.01 29.872L580.438 38.692L574.978 39.868L574.138 35.164C572.402 35.164 570.61 35.416 568.762 35.92C566.97 36.424 565.318 37.124 563.806 38.02V61.792H572.038V67H550.198V61.792H557.254V37.768L549.19 34.996L550.954 29.788L562.126 33.652ZM618.339 62.716C616.099 64.62 613.803 66.02 611.451 66.916C609.155 67.812 606.523 68.26 603.555 68.26C599.635 68.26 596.219 67.504 593.307 65.992C590.395 64.424 588.127 62.212 586.503 59.356C584.935 56.444 584.151 52.972 584.151 48.94C584.151 45.076 584.907 41.716 586.419 38.86C587.931 35.948 590.059 33.708 592.803 32.14C595.603 30.516 598.823 29.704 602.463 29.704C605.879 29.704 608.791 30.432 611.199 31.888C613.607 33.344 615.455 35.388 616.743 38.02C618.087 40.596 618.759 43.676 618.759 47.26C618.759 47.764 618.731 48.296 618.675 48.856C618.675 49.36 618.647 49.892 618.591 50.452L590.619 50.62C590.787 53.476 591.459 55.8 592.635 57.592C593.867 59.384 595.407 60.7 597.255 61.54C599.159 62.38 601.175 62.8 603.303 62.8C605.767 62.8 607.979 62.464 609.939 61.792C611.899 61.12 613.691 60.112 615.315 58.768L618.339 62.716ZM612.291 45.328C612.235 42.192 611.311 39.672 609.519 37.768C607.783 35.808 605.459 34.828 602.547 34.828C599.579 34.828 596.975 35.808 594.735 37.768C592.495 39.672 591.151 42.22 590.703 45.412L612.291 45.328ZM680.683 62.716C678.443 64.62 676.147 66.02 673.795 66.916C671.499 67.812 668.867 68.26 665.899 68.26C661.979 68.26 658.563 67.504 655.651 65.992C652.739 64.424 650.471 62.212 648.847 59.356C647.279 56.444 646.495 52.972 646.495 48.94C646.495 45.076 647.251 41.716 648.763 38.86C650.275 35.948 652.403 33.708 655.147 32.14C657.947 30.516 661.167 29.704 664.807 29.704C668.223 29.704 671.135 30.432 673.543 31.888C675.951 33.344 677.799 35.388 679.087 38.02C680.431 40.596 681.103 43.676 681.103 47.26C681.103 47.764 681.075 48.296 681.019 48.856C681.019 49.36 680.991 49.892 680.935 50.452L652.963 50.62C653.131 53.476 653.803 55.8 654.979 57.592C656.211 59.384 657.751 60.7 659.599 61.54C661.503 62.38 663.519 62.8 665.647 62.8C668.111 62.8 670.323 62.464 672.283 61.792C674.243 61.12 676.035 60.112 677.659 58.768L680.683 62.716ZM674.635 45.328C674.579 42.192 673.655 39.672 671.863 37.768C670.127 35.808 667.803 34.828 664.891 34.828C661.923 34.828 659.319 35.808 657.079 37.768C654.839 39.672 653.495 42.22 653.047 45.412L674.635 45.328ZM710.94 36.256C709.708 35.752 708.532 35.36 707.412 35.08C706.292 34.8 704.836 34.66 703.044 34.66C700.916 34.66 698.984 35.136 697.248 36.088C695.568 37.04 694.728 38.384 694.728 40.12C694.728 41.8 695.428 43.116 696.828 44.068C698.284 44.964 700.3 45.552 702.876 45.832L706.32 46.168C710.912 46.616 714.132 47.764 715.98 49.612C717.828 51.404 718.752 53.784 718.752 56.752C718.752 59.048 718.108 61.064 716.82 62.8C715.588 64.536 713.824 65.88 711.528 66.832C709.288 67.784 706.656 68.26 703.632 68.26C700.888 68.26 698.2 67.896 695.568 67.168C692.992 66.44 690.752 65.544 688.848 64.48L687.42 55.996L693.216 54.568L694.476 60.448C695.764 61.176 697.164 61.736 698.676 62.128C700.244 62.52 701.812 62.716 703.38 62.716C705.844 62.716 708 62.24 709.848 61.288C711.752 60.28 712.704 58.824 712.704 56.92C712.704 55.24 712.144 54.064 711.024 53.392C709.904 52.664 707.944 52.132 705.144 51.796L701.448 51.376C697.304 50.928 694.14 49.724 691.956 47.764C689.772 45.804 688.68 43.396 688.68 40.54C688.68 38.076 689.38 36.032 690.78 34.408C692.18 32.784 693.972 31.58 696.156 30.796C698.396 30.012 700.72 29.62 703.128 29.62C705.76 29.62 708.112 29.872 710.184 30.376C712.256 30.88 714.244 31.608 716.148 32.56L717.66 40.54L712.368 41.716L710.94 36.256Z" fill="#14C4AF"/>
</svg>
