<svg width="30" height="30" viewBox="0 0 30 30" fill="none" xmlns="http://www.w3.org/2000/svg">
<path d="M15 2.8125C12.8832 2.81307 10.8029 3.36484 8.96411 4.4135C7.12527 5.46216 5.59118 6.97157 4.51283 8.79316C3.43449 10.6148 2.84906 12.6857 2.81416 14.8023C2.77926 16.9189 3.29609 19.008 4.31379 20.8642L3.31215 24.3698C3.22027 24.6914 3.21605 25.0316 3.29992 25.3553C3.38379 25.679 3.5527 25.9744 3.78914 26.2108C4.02558 26.4473 4.32096 26.6162 4.64465 26.7001C4.96835 26.7839 5.30858 26.7797 5.6301 26.6879L9.13588 25.6863C10.7651 26.5802 12.5771 27.0898 14.4334 27.1761C16.2897 27.2623 18.1412 26.923 19.8462 26.184C21.5513 25.4449 23.0648 24.3258 24.271 22.9122C25.4772 21.4985 26.3442 19.8278 26.8057 18.0277C27.2672 16.2276 27.3109 14.3458 26.9336 12.5262C26.5563 10.7066 25.7679 8.99731 24.6287 7.52911C23.4895 6.06092 22.0297 4.87265 20.3609 4.05517C18.692 3.23769 16.8583 2.81263 15 2.8125ZM15 25.3125C13.148 25.3138 11.33 24.8157 9.73738 23.8704C9.62756 23.8051 9.50555 23.763 9.37884 23.7465C9.25214 23.7301 9.12341 23.7397 9.00055 23.7748L5.11505 24.8849L6.22507 20.9995C6.26017 20.8766 6.2698 20.7479 6.25335 20.6212C6.23691 20.4946 6.19475 20.3726 6.12946 20.2628C4.96797 18.3058 4.48631 16.0197 4.75952 13.7605C5.03273 11.5013 6.04547 9.39582 7.63996 7.77216C9.23446 6.14849 11.3212 5.09776 13.5751 4.78365C15.829 4.46953 18.1235 4.90967 20.1012 6.0355C22.0789 7.16133 23.6287 8.90963 24.5092 11.0081C25.3897 13.1065 25.5515 15.4372 24.9693 17.6372C24.3871 19.8371 23.0937 21.7828 21.2906 23.171C19.4874 24.5593 17.2757 25.3122 15 25.3125ZM21.1518 16.7659L18.7542 15.3959C18.465 15.2308 18.137 15.1457 17.804 15.1492C17.471 15.1528 17.145 15.2449 16.8593 15.4161L15.4705 16.2495C14.756 15.8373 14.1627 15.2441 13.7506 14.5295L14.5839 13.1406C14.7551 12.8549 14.8471 12.5289 14.8507 12.1959C14.8542 11.8629 14.7691 11.535 14.604 11.2458L13.234 8.84801C13.081 8.58115 12.8604 8.35935 12.5943 8.20498C12.3283 8.05061 12.0263 7.96913 11.7187 7.96875C10.6025 7.96919 9.53186 8.41181 8.74121 9.19975C7.95055 9.98768 7.50424 11.0567 7.49995 12.173C7.49803 13.5284 7.76335 14.871 8.28074 16.1238C8.79812 17.3767 9.55742 18.5152 10.5152 19.4744C11.473 20.4335 12.6105 21.1944 13.8626 21.7136C15.1147 22.2328 16.4569 22.5 17.8123 22.5C17.8172 22.5 17.8246 22.5027 17.8271 22.5C18.9433 22.4957 20.0123 22.0494 20.8002 21.2587C21.5882 20.4681 22.0308 19.3975 22.0312 18.2812C22.0308 17.9736 21.9493 17.6716 21.7949 17.4055C21.6405 17.1395 21.4187 16.9189 21.1518 16.7659V16.7659ZM17.8245 20.625C16.7144 20.6266 15.615 20.4091 14.5891 19.9851C13.5632 19.561 12.6311 18.9387 11.8462 18.1537C11.0613 17.3688 10.439 16.4367 10.0149 15.4109C9.59083 14.385 9.37336 13.2855 9.37495 12.1755C9.37777 11.5688 9.61585 10.9869 10.0391 10.5522C10.4623 10.1175 11.0377 9.86393 11.6441 9.8449L12.9761 12.1759L11.8758 14.0097C11.798 14.1394 11.7527 14.286 11.7438 14.4369C11.7349 14.5879 11.7626 14.7387 11.8247 14.8766C12.4834 16.3429 13.6571 17.5165 15.1234 18.1753C15.2613 18.2373 15.4121 18.2651 15.5631 18.2562C15.714 18.2473 15.8606 18.202 15.9902 18.1241L17.824 17.0239L20.1551 18.3559C20.136 18.9623 19.8825 19.5376 19.4478 19.9609C19.0131 20.3841 18.4312 20.6222 17.8245 20.625Z" fill="#14C4AF"/>
</svg>
